<svg width="257" height="242" viewBox="0 0 257 242" fill="none" xmlns="http://www.w3.org/2000/svg">
<path d="M3.53384 47.4311L2.08996 48.8773C1.40618 49.5621 1.09476 50.5347 1.25362 51.4894L1.47617 52.8268C1.57872 53.443 1.8711 54.0119 2.31252 54.454L6.70051 58.8487L19.0577 71.8438C19.2629 72.0596 19.4348 72.3047 19.5678 72.5711L22.3691 78.1824C22.4785 78.4016 22.5607 78.6333 22.6137 78.8725L25.0672 89.93L28.1525 102.908C28.2065 103.136 28.2338 103.369 28.2338 103.602V122.207C28.2338 122.672 28.342 123.131 28.5497 123.547L31.1313 128.718C31.309 129.074 31.4141 129.462 31.4405 129.859L31.9839 138.021C32.0167 138.514 32.1707 138.991 32.4321 139.41L35.2005 143.846L41.9604 153.438C42.4908 154.19 42.6462 155.145 42.382 156.027L41.0267 160.552C40.943 160.831 40.9005 161.121 40.9005 161.413V168.779C40.9005 169.071 40.943 169.361 41.0267 169.64L42.4567 174.414C42.6774 175.151 43.1728 175.775 43.8404 176.157L46.885 177.9C47.1165 178.032 47.3293 178.195 47.5178 178.384L48.6686 179.536C48.9751 179.843 49.2114 180.213 49.3612 180.62L53.4774 191.81C53.5371 191.973 53.5827 192.14 53.6136 192.31L54.566 197.556C54.7346 198.485 55.3305 199.28 56.1745 199.703L59.4404 201.338C59.7449 201.491 60.0732 201.59 60.4111 201.633L64.9672 202.203L69.65 202.789C69.9048 202.821 70.1545 202.886 70.3929 202.981L78.8644 206.375C79.3044 206.551 79.78 206.621 80.2521 206.578L86.5005 206.009L103.359 204.2C103.93 204.139 104.508 204.243 105.022 204.5L111.451 207.72C111.705 207.847 111.976 207.938 112.256 207.989L118.534 209.132C118.712 209.164 118.892 209.181 119.072 209.181H122.303C122.501 209.181 122.699 209.2 122.893 209.239L124.695 209.6C125.388 209.739 126.009 210.117 126.45 210.669L128.301 212.986L133.024 220.673C133.25 221.042 133.554 221.357 133.914 221.597L138.591 224.72C138.906 224.93 139.258 225.079 139.628 225.159L147.437 226.835C147.766 226.905 148.105 226.92 148.439 226.878L152.538 226.365C152.845 226.327 153.144 226.241 153.424 226.111L169.146 218.844C169.36 218.745 169.584 218.672 169.815 218.626L171.736 218.241C172.321 218.124 172.929 218.184 173.48 218.414L179.822 221.061C180.095 221.175 180.384 221.247 180.679 221.277L186.319 221.842C186.484 221.858 186.651 221.861 186.817 221.85L195.81 221.25C195.981 221.238 196.154 221.242 196.324 221.26L208.101 222.501L220.51 224.365C220.682 224.391 220.85 224.432 221.015 224.486L227.695 226.717C228.138 226.864 228.539 227.113 228.868 227.443L237.868 236.456L241.255 239.36C241.74 239.776 242.344 240.026 242.981 240.074L245.188 240.241C245.374 240.255 245.561 240.251 245.746 240.231L249.48 239.815C250.527 239.699 251.436 239.042 251.875 238.084L255.718 229.706C256.197 228.662 256.038 227.437 255.309 226.55L219.657 183.19C219.553 183.064 219.439 182.946 219.316 182.838L208.664 173.518C207.934 172.879 207.558 171.927 207.655 170.962L208.968 157.833C208.99 157.612 209.036 157.394 209.107 157.183L212.001 148.5L215.671 139.325C215.886 138.787 215.941 138.197 215.829 137.628L213.359 125.148C213.235 124.521 212.913 123.95 212.442 123.518L191.001 103.885L178.812 89.235C178.498 88.859 178.097 88.564 177.643 88.378L165.726 83.496C164.888 83.152 164.25 82.448 163.99 81.5804L162.938 78.0693C162.663 77.1519 161.967 76.4208 161.064 76.1016L153.039 73.2648C152.211 72.9721 151.553 72.3315 151.238 71.5118L148.661 64.8005C148.599 64.6389 148.523 64.4829 148.434 64.3343L146.923 61.8119C146.754 61.5299 146.54 61.2775 146.289 61.065L131.18 48.2604C130.555 47.7307 129.74 47.4797 128.925 47.5656L119.146 48.5966C118.51 48.6636 117.87 48.5259 117.318 48.2035L103.543 40.1556C103.164 39.9342 102.838 39.6323 102.589 39.2711L97.8999 32.4888C97.4917 31.8981 96.8851 31.4735 96.1905 31.292L86.8444 28.8502C84.8754 28.3357 83.0179 29.9929 83.3053 32.0076C83.3243 32.1408 83.3338 32.2752 83.3338 32.4097V33.2009C83.3338 34.1231 82.744 34.9418 81.8693 35.2338C81.5822 35.3297 81.2781 35.3636 80.977 35.3335L76.0561 34.8406C75.4346 34.7784 74.8091 34.9117 74.267 35.2219L63.3564 41.4662C62.4381 41.9918 61.2815 41.8368 60.5338 41.088L59.8048 40.3579C59.452 40.0045 59.1929 39.5686 59.0512 39.0898L48.6365 3.90908C48.2593 2.63488 47.0888 1.76068 45.7599 1.76068H39.6338H31.3778C30.5814 1.76068 29.8176 2.07738 29.2549 2.64098L12.6442 19.2773C12.0826 19.8398 11.7672 20.6022 11.7672 21.397V35.8522C11.7672 36.3736 11.6313 36.886 11.3729 37.3389L9.37504 40.8405C9.28112 41.0052 9.17181 41.1605 9.04858 41.3045L5.43384 45.5282L3.53384 47.4311Z" fill="#B8CCC9" stroke="#104946" stroke-width="2"/>
<path opacity="0.1" d="M90.3461 153.681L81.0907 137.056L71.3354 115.455C70.6157 113.862 71.4059 111.993 73.0506 111.399L87.3284 106.243C87.7705 106.083 88.2439 106.03 88.7105 106.087L106.696 108.28C107.805 108.415 108.898 107.923 109.531 107.002L113.139 101.754C113.681 100.966 113.814 99.966 113.498 99.064L110.848 91.491C110.623 90.849 110.623 90.151 110.848 89.509L113.559 81.7637C113.84 80.9595 113.766 80.0735 113.356 79.3269L109.332 72.0108C108.817 71.0753 108.839 69.937 109.388 69.0215L112.573 63.7125C112.853 63.2463 113.001 62.7128 113.001 62.169V56.6706C113.001 56.229 113.099 55.7928 113.287 55.3932L115.771 50.1145C116.457 48.655 115.867 46.9136 114.434 46.1725L103.257 40.3911C102.763 40.1354 102.349 39.7472 102.063 39.27L98.5824 33.4693C98.2075 32.8445 97.6181 32.3775 96.9242 32.1555L88.0274 29.3085C86.5846 28.8468 85.024 29.5332 84.3891 30.9086L83.3052 33.2572C82.8148 34.3196 81.7515 35 80.5813 35H76.6425C76.2195 35 75.8013 35.0894 75.4153 35.2625L63.3874 40.6543C62.2515 41.1635 60.9191 40.9183 60.0389 40.0381L59.5342 39.5334C59.1841 39.1833 58.926 38.7519 58.7831 38.2777L48.5824 4.42969C48.2307 3.26269 47.2078 2.42449 45.9944 2.30889L37.7308 1.52189C37.5777 1.50729 37.4237 1.50449 37.2702 1.51359L30.2124 1.92869C29.4353 1.97439 28.7063 2.32049 28.1796 2.89369L12.7239 19.7131C12.2562 20.222 11.9786 20.8768 11.938 21.5668L11.0568 36.5473C11.0204 37.1671 10.7925 37.7604 10.4046 38.2452L1.79217 49.0108C1.28623 49.6432 1.05749 50.4534 1.15794 51.257L1.37599 53.0014C1.45699 53.6494 1.74723 54.2533 2.20265 54.7213L19.1209 72.1095C19.3721 72.3677 19.5748 72.6691 19.7192 72.9991L22.8908 80.2485C22.964 80.4158 23.0217 80.5895 23.0634 80.7673L28.4219 103.663C28.4743 103.887 28.5008 104.116 28.5008 104.346V121.956C28.5008 122.316 28.5655 122.673 28.6918 123.009L31.3694 130.15C31.4567 130.382 31.5147 130.625 31.5421 130.872L32.4196 138.769C32.4729 139.249 32.6416 139.709 32.9111 140.111L41.825 153.377C42.2585 154.023 42.4246 154.811 42.2884 155.576L41.5008 160L40.5688 168.854C40.524 169.28 40.5709 169.71 40.7063 170.116L42.1078 174.321C42.3595 175.076 42.9006 175.7 43.6123 176.056L45.7014 177.1C46.223 177.361 46.6573 177.768 46.9511 178.272L50.0008 183.5L53.7657 192.442C53.9209 192.81 54.0008 193.206 54.0008 193.606V197.081C54.0008 198.251 54.6812 199.314 55.7436 199.804L60.1228 201.826C60.3736 201.941 60.6392 202.022 60.9121 202.065L69.6821 203.45C69.894 203.483 70.1016 203.539 70.3015 203.617L78.3244 206.737C78.7689 206.91 79.2482 206.974 79.7226 206.925L102.175 204.586C102.715 204.53 103.261 204.621 103.754 204.851L110.066 207.797C110.354 207.932 110.662 208.019 110.977 208.057L122.365 209.424C122.784 209.474 123.188 209.612 123.551 209.83L125.039 210.723C125.344 210.906 125.615 211.143 125.838 211.421L133.342 220.801C133.448 220.933 133.565 221.057 133.691 221.169L137.541 224.591C137.844 224.861 138.2 225.066 138.585 225.195L144.829 227.276C145.271 227.423 145.741 227.466 146.202 227.4L152.069 226.562C152.356 226.521 152.635 226.439 152.897 226.318L170.405 218.274C170.798 218.093 171.225 218 171.657 218H173.306C173.763 218 174.215 218.105 174.625 218.306L179.701 220.792C179.982 220.93 180.282 221.023 180.592 221.068L190.287 222.469C190.43 222.49 190.573 222.5 190.717 222.5H206.775C206.925 222.5 207.076 222.511 207.224 222.534L223.033 224.929C223.343 224.976 223.644 225.072 223.925 225.212L228.116 227.308C228.371 227.435 228.607 227.599 228.816 227.793L241.638 239.698C242.193 240.214 242.922 240.5 243.679 240.5H248.76C249.837 240.5 250.831 239.923 251.365 238.988L252.501 237L255.797 229.172C256.23 228.144 256.056 226.961 255.347 226.1L226.001 190.5L219.501 183.5L209.067 173.52C208.395 172.877 208.059 171.958 208.158 171.033L209.235 160.986C209.377 159.658 208.336 158.5 207.001 158.5L203.77 158.303C203.037 158.258 202.314 158.484 201.736 158.937L194.092 164.93C193.787 165.17 193.437 165.348 193.064 165.454L180.528 169.029C180.261 169.105 179.984 169.143 179.706 169.143H169.092C168.733 169.143 168.377 169.079 168.041 168.953L158.747 165.475C158.425 165.355 158.126 165.18 157.863 164.958L150.739 158.942C150.197 158.484 149.512 158.234 148.803 158.234H130.886C130.701 158.234 130.516 158.217 130.334 158.183L110.303 154.434C110.121 154.4 109.936 154.383 109.751 154.383H103.311C102.663 154.383 102.032 154.593 101.513 154.981L98.7793 157.027C97.8045 157.757 96.4853 157.825 95.4406 157.2L91.4262 154.796C90.9746 154.526 90.6021 154.141 90.3461 153.681Z" fill="#104946"/>
<path d="M22 72.5C22.6881 72.156 23.3761 71.1018 23.7385 70.4776C23.9192 70.1661 24.1352 69.8745 24.3992 69.6296L25.8627 68.2717C26.2337 67.9275 26.6859 67.6827 27.177 67.5601L30.8027 66.6556C31.3067 66.5298 31.7672 66.2696 32.1348 65.9027C33.4723 64.568 35.7122 64.8682 36.6511 66.5078L36.9711 67.0665C37.2265 67.5126 37.5923 67.8856 38.0333 68.1497L39.1172 68.7987C40.0221 69.3405 40.576 70.3178 40.576 71.3725V74.3601C40.576 75.0629 40.3293 75.7435 39.8787 76.2829L39.3049 76.9702C38.2346 78.2518 38.4168 80.1608 39.7102 81.2168L43.3381 84.179C44.0323 84.746 44.9437 84.973 45.8226 84.797L50.2781 83.908C50.6657 83.831 51.0648 83.831 51.4525 83.908L55.7932 84.774C56.7371 84.963 57.5333 85.592 57.9339 86.468L81.0899 137.056L90.7361 154.383M90.7361 154.383C90.7361 154.383 53.5 181.5 52 182M90.7361 154.383L95.4398 157.2C96.4845 157.825 97.8037 157.757 98.7785 157.027L101.512 154.981C102.031 154.593 102.662 154.383 103.31 154.383H109.75C109.935 154.383 110.12 154.4 110.302 154.434L130.333 158.183C130.515 158.217 130.7 158.234 130.885 158.234H148.802C149.511 158.234 150.196 158.484 150.738 158.942L157.862 164.958C158.125 165.18 158.424 165.355 158.746 165.475L168.04 168.953C168.376 169.079 168.732 169.143 169.091 169.143H179.705C179.983 169.143 180.26 169.105 180.527 169.029L193.063 165.454C193.436 165.348 193.786 165.17 194.091 164.93L201.735 158.937C202.313 158.484 203.036 158.258 203.769 158.303L207 158.5" stroke="#84A29D"/>
<path d="M70 112.5L87.3318 106.241C87.7712 106.083 88.2416 106.029 88.7054 106.084L107.171 108.282C108.293 108.416 109.395 107.908 110.022 106.967L113.186 102.221C113.7 101.451 113.829 100.486 113.536 99.608L110.824 91.472C110.614 90.842 110.619 90.16 110.839 89.533L113.535 81.828C113.83 80.9866 113.735 80.0579 113.276 79.2935L108.977 72.1279C108.38 71.1338 108.41 69.885 109.053 68.9204L112.496 63.7558C112.825 63.263 113 62.6839 113 62.0917V56.7082C113 56.2425 113.108 55.7831 113.317 55.3666L116 50" stroke="#84A29D"/>
<path d="M65.1344 64.71C65.4944 64.71 65.7844 64.61 66.0044 64.41C66.2244 64.21 66.3344 63.945 66.3344 63.615V61.17H67.5794V63.645C67.5794 64.375 67.3544 64.95 66.9044 65.37C66.4644 65.79 65.8744 66 65.1344 66H59.7644C58.8844 66 58.2194 65.77 57.7694 65.31C57.3294 64.85 57.1094 64.215 57.1094 63.405V61.17H58.3544V63.24C58.3544 64.22 58.8494 64.71 59.8394 64.71H65.1344ZM61.5344 69.135V67.89H63.1244V69.135H61.5344ZM72.8503 64.71C72.9003 64.71 72.9353 64.755 72.9553 64.845C72.9853 64.925 73.0003 65.1 73.0003 65.37C73.0003 65.63 72.9853 65.8 72.9553 65.88C72.9353 65.96 72.9003 66 72.8503 66H72.4603C71.7003 66 71.1203 65.775 70.7203 65.325C70.3303 64.865 70.1353 64.215 70.1353 63.375V56.295H71.3803V63.315C71.3803 64.245 71.7603 64.71 72.5203 64.71H72.8503ZM74.6576 64.71C75.0476 64.71 75.3576 64.61 75.5876 64.41C75.8176 64.21 75.9326 63.94 75.9326 63.6V61.17H77.1776V63.57C77.1776 63.94 77.2776 64.225 77.4776 64.425C77.6876 64.615 77.9876 64.71 78.3776 64.71H78.7976C78.8976 64.71 78.9476 64.925 78.9476 65.355C78.9476 65.785 78.8976 66 78.7976 66H78.3326C77.4126 66 76.8126 65.705 76.5326 65.115C76.1826 65.705 75.5576 66 74.6576 66H72.8576C72.7576 66 72.7076 65.79 72.7076 65.37C72.7076 64.93 72.7576 64.71 72.8576 64.71H74.6576ZM75.4826 59.37V58.125H77.0726V59.37H75.4826ZM80.6049 64.71C80.9949 64.71 81.3049 64.61 81.5349 64.41C81.7649 64.21 81.8799 63.94 81.8799 63.6V61.17H83.1249V63.57C83.1249 63.94 83.2249 64.225 83.4249 64.425C83.6349 64.615 83.9349 64.71 84.3249 64.71H84.7449C84.8449 64.71 84.8949 64.925 84.8949 65.355C84.8949 65.785 84.8449 66 84.7449 66H84.2799C83.3599 66 82.7599 65.705 82.4799 65.115C82.1299 65.705 81.5049 66 80.6049 66H78.8049C78.7049 66 78.6549 65.79 78.6549 65.37C78.6549 64.93 78.7049 64.71 78.8049 64.71H80.6049ZM81.8949 67.89V69.075H77.9349V67.89H81.8949ZM85.0971 64.71C85.8071 64.71 86.1621 64.39 86.1621 63.75V63.135C86.1621 62.175 86.4171 61.42 86.9271 60.87C87.4371 60.32 88.1371 60.045 89.0271 60.045C89.9171 60.045 90.6021 60.305 91.0821 60.825C91.5621 61.345 91.8021 62.095 91.8021 63.075C91.8021 64.005 91.5521 64.725 91.0521 65.235C90.5521 65.745 89.8621 66 88.9821 66C87.9421 66 87.2421 65.69 86.8821 65.07C86.7121 65.39 86.4871 65.625 86.2071 65.775C85.9271 65.925 85.5571 66 85.0971 66H84.7521C84.6521 66 84.6021 65.79 84.6021 65.37C84.6021 64.93 84.6521 64.71 84.7521 64.71H85.0971ZM90.5571 63.075C90.5571 61.895 90.0321 61.305 88.9821 61.305C88.4521 61.305 88.0571 61.455 87.7971 61.755C87.5371 62.055 87.4071 62.515 87.4071 63.135C87.4071 63.625 87.5421 64.01 87.8121 64.29C88.0921 64.57 88.4821 64.71 88.9821 64.71C90.0321 64.71 90.5571 64.165 90.5571 63.075Z" fill="#104946"/>
<path d="M43.9206 136C43.0406 136 42.3756 135.77 41.9256 135.31C41.4856 134.85 41.2656 134.215 41.2656 133.405V131.17H42.5106V133.24C42.5106 134.22 43.0056 134.71 43.9956 134.71H49.3806C49.8206 134.71 50.1606 134.625 50.4006 134.455C50.6406 134.285 50.7606 134.055 50.7606 133.765C50.7606 133.565 50.7106 133.37 50.6106 133.18C50.5206 132.98 50.3656 132.77 50.1456 132.55L46.6356 129.055V127.975L52.0956 125.8L52.4706 127L48.0906 128.725L51.0606 131.71C52.0206 132.67 52.7256 133.35 53.1756 133.75C53.6256 134.15 53.9756 134.41 54.2256 134.53C54.4856 134.65 54.7806 134.71 55.1106 134.71C55.2106 134.71 55.2606 134.93 55.2606 135.37C55.2606 135.79 55.2106 136 55.1106 136C54.6806 136 54.3256 135.96 54.0456 135.88C53.7656 135.79 53.4606 135.625 53.1306 135.385C52.8106 135.135 52.3856 134.745 51.8556 134.215C51.8056 134.745 51.5606 135.175 51.1206 135.505C50.6906 135.835 50.1106 136 49.3806 136H43.9206ZM58.7246 134.71C59.0846 134.71 59.3746 134.615 59.5946 134.425C59.8146 134.225 59.9246 133.95 59.9246 133.6V131.17H61.1846V133.615C61.1846 134.355 60.9596 134.94 60.5096 135.37C60.0596 135.79 59.4646 136 58.7246 136H55.1106C55.0106 136 54.9596 135.79 54.9596 135.37C54.9596 134.93 55.0106 134.71 55.1106 134.71H58.7246ZM59.2196 137.89V139.075H55.2596V137.89H59.2196ZM61.783 138.37C62.633 138.37 63.298 138.12 63.778 137.62C64.258 137.13 64.498 136.445 64.498 135.565V131.17H65.743V133.555C65.743 133.925 65.848 134.21 66.058 134.41C66.278 134.61 66.593 134.71 67.003 134.71H67.198C67.298 134.71 67.348 134.93 67.348 135.37C67.348 135.79 67.298 136 67.198 136H67.003C66.733 136 66.483 135.955 66.253 135.865C66.023 135.765 65.853 135.64 65.743 135.49V135.67C65.733 136.47 65.563 137.17 65.233 137.77C64.903 138.38 64.443 138.845 63.853 139.165C63.263 139.495 62.583 139.66 61.813 139.66H61.393L61.273 138.37H61.783ZM70.0295 134.71C70.4195 134.71 70.7295 134.61 70.9595 134.41C71.1895 134.21 71.3045 133.94 71.3045 133.6V131.17H72.5495V133.57C72.5495 133.94 72.6495 134.225 72.8495 134.425C73.0595 134.615 73.3595 134.71 73.7495 134.71H74.1695C74.2695 134.71 74.3195 134.925 74.3195 135.355C74.3195 135.785 74.2695 136 74.1695 136H73.7045C72.7845 136 72.1845 135.705 71.9045 135.115C71.5545 135.705 70.9295 136 70.0295 136H67.1945C67.0945 136 67.0445 135.79 67.0445 135.37C67.0445 134.93 67.0945 134.71 67.1945 134.71H70.0295ZM70.9745 137.89V139.075H67.0145V137.89H70.9745ZM75.3372 134.71C75.7772 134.71 76.1172 134.605 76.3572 134.395C76.6072 134.185 76.7322 133.895 76.7322 133.525V131.17H77.9922V133.525C77.9922 134.315 78.4372 134.71 79.3272 134.71C79.7672 134.71 80.1072 134.605 80.3472 134.395C80.5972 134.185 80.7222 133.895 80.7222 133.525V131.17H81.9672V133.525C81.9672 133.905 82.0722 134.2 82.2822 134.41C82.5022 134.61 82.8222 134.71 83.2422 134.71C83.6622 134.71 83.9822 134.61 84.2022 134.41C84.4222 134.2 84.5322 133.905 84.5322 133.525V131.17H85.7772V133.495C85.7772 134.275 85.5472 134.89 85.0872 135.34C84.6372 135.78 84.0222 136 83.2422 136C82.2322 136 81.5822 135.69 81.2922 135.07C80.9222 135.69 80.2672 136 79.3272 136C78.2672 136 77.5922 135.69 77.3022 135.07C76.9322 135.69 76.2772 136 75.3372 136H74.1672C74.0672 136 74.0172 135.79 74.0172 135.37C74.0172 134.93 74.0672 134.71 74.1672 134.71H75.3372Z" fill="#104946"/>
<path d="M141.354 115.755C141.674 116.125 141.904 116.475 142.044 116.805C142.184 117.125 142.254 117.45 142.254 117.78C142.254 118.44 142.024 118.975 141.564 119.385C141.104 119.795 140.459 120 139.629 120H135.354L135.234 118.71H139.629C140.069 118.71 140.409 118.625 140.649 118.455C140.889 118.285 141.009 118.055 141.009 117.765C141.009 117.585 140.959 117.405 140.859 117.225C140.769 117.035 140.614 116.81 140.394 116.55L137.589 113.325L138.474 112.44L141.354 115.755ZM146.801 117.555C146.801 117.925 146.906 118.21 147.116 118.41C147.336 118.61 147.651 118.71 148.061 118.71H148.256C148.356 118.71 148.406 118.93 148.406 119.37C148.406 119.79 148.356 120 148.256 120H148.061C147.791 120 147.541 119.955 147.311 119.865C147.081 119.765 146.911 119.64 146.801 119.49V119.67C146.791 120.47 146.621 121.17 146.291 121.77C145.961 122.38 145.501 122.845 144.911 123.165C144.321 123.495 143.641 123.66 142.871 123.66H141.821L141.701 122.37H142.841C143.691 122.37 144.356 122.12 144.836 121.62C145.316 121.13 145.556 120.445 145.556 119.565V115.17H146.801V117.555ZM154.538 107.865L154.793 108.675L149.663 110.805V109.905L154.538 107.865ZM152.408 118.71C152.838 118.71 153.173 118.625 153.413 118.455C153.663 118.285 153.788 118.055 153.788 117.765C153.788 117.565 153.738 117.37 153.638 117.18C153.548 116.98 153.393 116.77 153.173 116.55L149.648 113.055V111.975L155.123 109.8L155.498 111L151.118 112.725L154.118 115.74C154.728 116.35 155.033 117.03 155.033 117.78C155.033 118.44 154.803 118.975 154.343 119.385C153.883 119.795 153.238 120 152.408 120H148.253C148.153 120 148.103 119.79 148.103 119.37C148.103 118.93 148.153 118.71 148.253 118.71H152.408ZM160.536 118.71C160.586 118.71 160.621 118.755 160.641 118.845C160.671 118.925 160.686 119.1 160.686 119.37C160.686 119.63 160.671 119.8 160.641 119.88C160.621 119.96 160.586 120 160.536 120H160.146C159.386 120 158.806 119.775 158.406 119.325C158.016 118.865 157.821 118.215 157.821 117.375V110.295H159.066V117.315C159.066 118.245 159.446 118.71 160.206 118.71H160.536ZM161.713 118.71C162.153 118.71 162.493 118.605 162.733 118.395C162.983 118.185 163.108 117.895 163.108 117.525V115.17H164.368V117.525C164.368 118.315 164.813 118.71 165.703 118.71C166.143 118.71 166.483 118.605 166.723 118.395C166.973 118.185 167.098 117.895 167.098 117.525V115.17H168.343V117.525C168.343 117.905 168.448 118.2 168.658 118.41C168.878 118.61 169.198 118.71 169.618 118.71C170.028 118.71 170.343 118.605 170.563 118.395C170.793 118.185 170.908 117.895 170.908 117.525V115.17H172.153V117.525C172.153 118.315 172.548 118.71 173.338 118.71H173.773C173.883 118.71 173.938 118.93 173.938 119.37C173.938 119.63 173.923 119.8 173.893 119.88C173.863 119.96 173.823 120 173.773 120H173.338C172.378 120 171.758 119.705 171.478 119.115C171.128 119.705 170.508 120 169.618 120C168.608 120 167.958 119.69 167.668 119.07C167.298 119.69 166.643 120 165.703 120C164.643 120 163.968 119.69 163.678 119.07C163.308 119.69 162.653 120 161.713 120H160.543C160.443 120 160.393 119.79 160.393 119.37C160.393 118.93 160.443 118.71 160.543 118.71H161.713ZM168.373 110.13V111.315H167.008V110.13H168.373ZM169.663 112.185V113.37H165.703V112.185H169.663ZM177.805 117.615C177.805 118.355 177.58 118.94 177.13 119.37C176.68 119.79 176.085 120 175.345 120H173.785C173.685 120 173.635 119.79 173.635 119.37C173.635 118.93 173.685 118.71 173.785 118.71H175.345C175.705 118.71 175.995 118.615 176.215 118.425C176.445 118.225 176.56 117.95 176.56 117.6V115.17H177.805V117.615ZM174.19 123.135V121.89H175.78V123.135H174.19Z" fill="#104946"/>
<path d="M146.958 192C146.078 192 145.413 191.77 144.963 191.31C144.523 190.85 144.303 190.215 144.303 189.405V187.17H145.548V189.24C145.548 190.22 146.043 190.71 147.033 190.71H152.418C152.858 190.71 153.198 190.625 153.438 190.455C153.678 190.285 153.798 190.055 153.798 189.765C153.798 189.565 153.748 189.37 153.648 189.18C153.558 188.98 153.403 188.77 153.183 188.55L149.673 185.055V183.975L155.133 181.8L155.508 183L151.128 184.725L154.098 187.71C155.058 188.67 155.763 189.35 156.213 189.75C156.663 190.15 157.013 190.41 157.263 190.53C157.523 190.65 157.818 190.71 158.148 190.71C158.248 190.71 158.298 190.93 158.298 191.37C158.298 191.79 158.248 192 158.148 192C157.718 192 157.363 191.96 157.083 191.88C156.803 191.79 156.498 191.625 156.168 191.385C155.848 191.135 155.423 190.745 154.893 190.215C154.843 190.745 154.598 191.175 154.158 191.505C153.728 191.835 153.148 192 152.418 192H146.958ZM159.317 190.71C159.757 190.71 160.097 190.605 160.337 190.395C160.587 190.185 160.712 189.895 160.712 189.525V187.17H161.972V189.525C161.972 190.315 162.417 190.71 163.307 190.71C163.747 190.71 164.087 190.605 164.327 190.395C164.577 190.185 164.702 189.895 164.702 189.525V187.17H165.947V189.525C165.947 189.905 166.052 190.2 166.262 190.41C166.482 190.61 166.802 190.71 167.222 190.71C167.642 190.71 167.962 190.61 168.182 190.41C168.402 190.2 168.512 189.905 168.512 189.525V187.17H169.757V189.495C169.757 190.275 169.527 190.89 169.067 191.34C168.617 191.78 168.002 192 167.222 192C166.212 192 165.562 191.69 165.272 191.07C164.902 191.69 164.247 192 163.307 192C162.247 192 161.572 191.69 161.282 191.07C160.912 191.69 160.257 192 159.317 192H158.147C158.047 192 157.997 191.79 157.997 191.37C157.997 190.93 158.047 190.71 158.147 190.71H159.317ZM175.044 190.71C175.094 190.71 175.129 190.755 175.149 190.845C175.179 190.925 175.194 191.1 175.194 191.37C175.194 191.63 175.179 191.8 175.149 191.88C175.129 191.96 175.094 192 175.044 192H174.654C173.894 192 173.314 191.775 172.914 191.325C172.524 190.865 172.329 190.215 172.329 189.375V182.295H173.574V189.315C173.574 190.245 173.954 190.71 174.714 190.71H175.044ZM176.101 190.71C176.851 190.71 177.476 190.65 177.976 190.53C178.476 190.41 178.991 190.2 179.521 189.9L181.801 188.565C181.641 188.025 181.421 187.65 181.141 187.44C180.871 187.23 180.461 187.125 179.911 187.125H176.401L176.566 185.82H180.121C180.721 185.82 181.216 185.92 181.606 186.12C181.996 186.32 182.321 186.65 182.581 187.11C182.841 187.56 183.066 188.185 183.256 188.985L180.106 190.935C179.466 191.335 178.851 191.615 178.261 191.775C177.671 191.925 176.936 192 176.056 192H175.051C174.951 192 174.901 191.79 174.901 191.37C174.901 190.93 174.951 190.71 175.051 190.71H176.101ZM177.826 195.135V193.89H179.416V195.135H177.826Z" fill="#104946"/>
</svg>
