<svg width="696" height="286" viewBox="0 0 696 286" fill="none" xmlns="http://www.w3.org/2000/svg">
<path d="M265.788 193.314L212.875 181.94C210.542 181.439 208.292 183.079 208.055 185.453L207.724 188.755C207.585 190.149 208.184 191.513 209.305 192.353L215.135 196.726C215.377 196.908 215.599 197.117 215.794 197.349L231.5 216L253.566 242.479C253.853 242.824 254.081 243.215 254.238 243.635L254.822 245.193C255.25 246.335 255.134 247.609 254.507 248.655L253.002 251.163C252.674 251.711 252.5 252.337 252.5 252.976V253.384C252.5 255.105 253.895 256.5 255.616 256.5C255.871 256.5 256.125 256.469 256.372 256.407L260 255.5L283.5 247.5L285.522 246.691C285.839 246.564 286.172 246.479 286.511 246.436L288.143 246.232C289.32 246.085 290.501 246.468 291.368 247.277L297.13 252.655C297.376 252.884 297.649 253.081 297.944 253.242L302.105 255.512C302.692 255.832 303.351 256 304.02 256H306.008C306.335 256 306.66 255.96 306.978 255.881L310.5 255L317.624 253.1C317.874 253.034 318.13 252.991 318.388 252.974L324.805 252.546C325.265 252.516 325.727 252.565 326.17 252.691L327.522 253.078C328.473 253.35 329.288 253.969 329.923 254.728C330.921 255.921 332.208 257.208 332.5 257.5C332.765 257.765 333.486 258.046 334.135 258.253C334.7 258.433 335.301 258.44 335.882 258.324L342.5 257L346.759 255.722C347.248 255.575 347.762 255.524 348.27 255.57L352.133 255.921C352.704 255.973 353.258 256.147 353.756 256.432L356.5 258C357.833 258.833 361.1 259.6 361.5 260C361.849 260.349 363.237 260.216 364.139 260.066C364.38 260.026 364.614 259.954 364.841 259.864L366.509 259.196C366.835 259.066 367.142 258.893 367.423 258.683L370.274 256.544C370.752 256.186 371.304 255.939 371.89 255.822L372.282 255.744C373.075 255.585 373.898 255.671 374.642 255.989L377 257L391 265.5L393.843 267.277C394.497 267.686 395.356 267.526 395.819 266.908C396.221 266.372 396.215 265.633 395.803 265.104L393.243 261.813C393.081 261.605 392.941 261.381 392.823 261.146L390.042 255.583C389.688 254.877 389.552 254.082 389.65 253.298L389.758 252.432C389.911 251.212 390.616 250.131 391.67 249.498L394.158 248.005C394.711 247.673 395.336 247.48 395.981 247.442L402.433 247.063C403.132 247.022 403.83 247.165 404.456 247.478L407.517 249.009C408.751 249.625 409.579 250.834 409.71 252.207L410.465 260.134C410.488 260.377 410.534 260.618 410.601 260.854L410.846 261.711C411.249 263.121 412.392 264.198 413.824 264.517L416 265L433.5 268L446 271L453.5 272L460.5 273L466.5 274L474.174 275.354C474.719 275.45 475.238 275.658 475.698 275.965L478 277.5L482.054 280.203C482.35 280.4 482.671 280.557 483.008 280.669L487.884 282.295C488.292 282.431 488.719 282.5 489.149 282.5H495.5L502.918 282.064C503.627 282.022 504.311 281.792 504.902 281.399L506.252 280.499C506.744 280.17 507.158 279.737 507.463 279.229L508.144 278.094C508.379 277.701 508.546 277.27 508.636 276.821L508.894 275.53C508.964 275.178 508.987 274.819 508.961 274.461L508.628 269.785C508.547 268.664 509.012 267.574 509.875 266.854C510.874 266.022 512.252 265.814 513.453 266.314L516.393 267.539C516.969 267.779 517.622 267.438 517.755 266.828L519.92 256.87C519.973 256.624 520.003 256.373 520.01 256.121L520.982 217.718C520.994 217.243 521.09 216.774 521.267 216.333L524 209.5L524.173 208.807C524.385 207.959 524.314 207.065 523.969 206.261L521.5 200.5C521.187 199.561 521.355 198.527 521.949 197.735L521.977 197.697C522.319 197.241 522.78 196.888 523.309 196.676L525 196L529.021 194.392C529.663 194.135 530.227 193.716 530.659 193.177L531.255 192.432C531.741 191.824 532.039 191.087 532.113 190.312L532.735 183.782C532.894 182.111 531.993 180.518 530.479 179.794L522.319 175.891C521.78 175.634 521.19 175.5 520.593 175.5H503.5H483.56C483.189 175.5 482.819 175.552 482.461 175.654L481.721 175.865C480.347 176.258 479.286 177.354 478.94 178.741L478.902 178.893C478.645 179.922 478.807 181.011 479.352 181.921L480.742 184.237C481.231 185.052 481.414 186.015 481.258 186.953L481.149 187.606C481.051 188.195 480.822 188.754 480.48 189.242L477.741 193.156C477.581 193.385 477.397 193.596 477.193 193.786L470.637 199.905C470.217 200.297 469.718 200.594 469.173 200.776L469.116 200.795C468.708 200.931 468.281 201 467.851 201H446.11C445.706 201 445.304 200.939 444.917 200.818L438.658 198.862C437.903 198.626 437.095 198.619 436.336 198.842L429.584 200.828C429.197 200.942 428.829 201.114 428.494 201.338L428.353 201.431C427.793 201.804 427.337 202.313 427.026 202.909L423.842 209.012C422.647 211.302 419.627 211.876 417.675 210.184L411.34 204.691C410.694 204.131 409.886 203.793 409.034 203.726L362.19 200.035C361.715 199.998 361.237 200.045 360.779 200.176L347.967 203.829L317.955 209.33C316.989 209.507 315.993 209.323 315.154 208.813L291.768 194.582C290.71 193.938 289.412 193.821 288.256 194.265L275.792 199.049C274.319 199.614 272.65 199.261 271.533 198.146L267.773 194.393C267.228 193.85 266.539 193.475 265.788 193.314Z" fill="#E4DFD6"/>
<path d="M113 72L116.5 65H130.5L146.5 78L150.5 88L152.5 90L162 93.5L164 98.5L165.5 100.5L178 105L188.5 118.5L211 139L215.5 126.5L211 114L212.5 109L216 104.5L202 78.5L209.5 74.5L225.5 62.5L254.5 44.5L278 53H282L287 47.5L303 44.5L310 46.5H313L333.5 12L374 14.5L401 16L423 53L431.5 73L432.5 60L450 33L492 12L515 3L519 2L525 12H528.5L539 6.5L548.5 8L563.5 6.5L579 12L581 14L573.5 25L572 38L577 48L584 52.5H607.5L608.5 48L623.5 38L634.5 20.5L640.5 18L657.5 13.5L664 14L669 9.5L683 19.5L686 23L683 27L678 32.5L679.5 48L681.5 52.5L675 70L673.5 86L672 89L633.5 87L624.5 94.5L596 102.5L585 108.5L583 125.5L579 128L568 126.5L562.5 133.5L537.5 145.5L533 181.5L521 175.5H487H481L479 177.5V180.5L482 187L477.5 193.5L469 201H445L437 198.5L427.5 202L422 214L410 204L383.5 202L361 200.5L316.5 210L290 194L273.5 199.5L266 193.5L210 181.5L209 176.5H203L193.5 183.5L179.5 187H168L158.5 183.5L150 176.5H130L110 172.5H102.5L97 176L90.5 172.5L82.5 158L69.5 129L88.5 122.5L109.5 124L113.5 117L110.5 106.5L113.5 96.5L108.5 86L113 78V72Z" fill="#F4F0EA"/>
<path d="M432.3 75V60.9069C432.3 60.3099 432.478 59.7264 432.811 59.2312L450.231 33.3622C450.516 32.9381 450.906 32.5941 451.361 32.3627L496.9 9.24605L516.161 1.87016C517.485 1.36298 518.984 1.85255 519.753 3.0438L524.712 10.7186C525.152 11.3993 525.848 11.8731 526.642 12.0322L527.556 12.2151C528.211 12.3464 528.891 12.2552 529.488 11.956L539.237 7.07403C539.715 6.83489 540.247 6.72756 540.78 6.76314L549.466 7.34311L562.824 6.73499C563.204 6.71769 563.584 6.7728 563.944 6.89739L579.16 12.1727C579.618 12.3316 580.012 12.6362 580.281 13.04C580.793 13.8103 580.774 14.8178 580.233 15.5683L573.418 25.0188C573.08 25.4883 572.884 26.0458 572.855 26.6239L572.309 37.5602C572.281 38.1248 572.413 38.6859 572.69 39.1788L577.632 47.978C577.852 48.3699 578.157 48.7073 578.525 48.9654L583.524 52.47C584.029 52.8238 584.63 53.0135 585.246 53.0135H605.222C606.019 53.0135 606.783 52.6968 607.345 52.1332L607.78 51.6981C608.164 51.3137 608.436 50.8322 608.567 50.3051L608.737 49.6238C608.907 48.9449 609.308 48.3467 609.872 47.9325L618.5 41.5959L623.937 36.7553C624.111 36.5999 624.267 36.4247 624.401 36.2332L628.633 30.1783L634.516 21.2352C634.832 20.7552 635.279 20.3759 635.804 20.1426L639.298 18.5899C639.432 18.53 639.571 18.4802 639.713 18.4408L656.909 13.6642C657.299 13.5559 657.707 13.5276 658.108 13.5811L662.653 14.1871C664.029 14.3706 665.352 13.586 665.85 12.2904L666.081 11.6887C666.794 9.83549 669.078 9.17346 670.671 10.3582L684.389 20.5587C685.796 21.6044 686.01 23.628 684.854 24.9451L678.911 31.7153C678.352 32.3522 678.088 33.1959 678.185 34.0378L679.897 48.8987C679.921 49.1041 679.966 49.3066 680.031 49.5027L680.884 52.0662C681.089 52.6812 681.089 53.3459 680.884 53.9609L679.933 56.8194L675.043 69.0622C674.926 69.356 674.856 69.6664 674.836 69.9821L673.789 86.2293C673.684 87.8616 672.291 89.1088 670.657 89.0333L633.68 87.324C632.882 87.2871 632.102 87.5704 631.513 88.1109L625.237 93.8728C624.97 94.1181 624.66 94.3129 624.324 94.4478L621.666 95.5124L593.474 103.669C593.27 103.729 593.072 103.809 592.884 103.911L586.384 107.416C585.48 107.903 584.889 108.819 584.816 109.843L584.3 117.079L583.271 124.291C583.123 125.327 582.446 126.211 581.484 126.624L579.311 127.557C578.844 127.757 578.334 127.836 577.829 127.785L572.266 127.228L568.995 126.818C567.891 126.68 566.801 127.164 566.163 128.077L563.202 132.313C562.916 132.723 562.533 133.054 562.086 133.277L538.879 144.899C537.976 145.351 537.362 146.226 537.243 147.229L533 183.047L531.802 191.446C531.756 191.765 531.66 192.075 531.516 192.363L531.122 193.152C530.708 193.98 529.935 194.571 529.027 194.753L524.716 195.617C524.331 195.694 523.965 195.846 523.639 196.064L523.139 196.397C522.554 196.788 522.124 197.372 521.926 198.048L521.832 198.368C521.619 199.096 521.688 199.877 522.027 200.555L524 204.5L524.938 206.377C525.298 207.095 525.354 207.928 525.094 208.688L524.24 211.186C524.169 211.395 524.075 211.595 523.959 211.783L521.395 215.966C521.115 216.424 520.962 216.949 520.953 217.487L520.337 256.99C520.334 257.171 520.315 257.351 520.28 257.528L518.273 267.625C518.139 268.298 517.382 268.639 516.789 268.293L512.61 265.856C512.211 265.623 511.756 265.501 511.293 265.502C509.712 265.505 508.499 266.906 508.722 268.472L508.933 269.948L509.409 275.868C509.468 276.597 509.258 277.323 508.819 277.908L507.123 280.169C506.72 280.707 506.146 281.094 505.496 281.268L499.38 282.899C499.128 282.966 498.868 283 498.607 283H490.432C490.145 283 489.86 282.959 489.586 282.878L481.913 280.622C481.639 280.541 481.378 280.422 481.138 280.267L474.934 276.279C474.647 276.094 474.33 275.96 473.998 275.882L466 274L444.5 271L427 267L412.79 264.416C411.442 264.171 410.432 263.045 410.334 261.678L409.565 250.908C409.523 250.316 409.32 249.735 408.875 249.343C406.869 247.578 402.051 245.796 393.5 248.5C385.838 250.923 391.15 259.767 395.879 264.411C396.269 264.794 396.5 265.312 396.5 265.859C396.5 267.415 394.765 268.344 393.47 267.48L392 266.5L382.5 260.5L374.915 256.234C374.64 256.079 374.342 255.968 374.033 255.907L373.009 255.702C372.355 255.571 371.676 255.662 371.079 255.96L370.435 256.282C370.147 256.426 369.884 256.616 369.656 256.844L367.409 259.091C367.139 259.361 366.82 259.577 366.469 259.728L364.548 260.551C363.873 260.84 363.115 260.872 362.418 260.639L359.35 259.617C359.118 259.539 358.895 259.433 358.688 259.302L354.237 256.469C353.756 256.163 353.197 256 352.626 256H347.869C347.624 256 347.38 256.03 347.142 256.09L338.007 258.373C337.671 258.457 337.324 258.482 336.98 258.448L333.756 258.126C332.953 258.045 332.216 257.645 331.712 257.015L329.456 254.195C328.856 253.444 327.931 253.027 326.971 253.073L318.276 253.487C318.092 253.496 317.91 253.521 317.731 253.563L309.5 255.5L304.521 256.33C303.859 256.44 303.18 256.325 302.591 256.004L298.284 253.655C298.095 253.552 297.918 253.429 297.756 253.288L291.138 247.553C290.721 247.191 290.212 246.952 289.667 246.861L288.115 246.603C287.71 246.535 287.294 246.552 286.895 246.651L283.5 247.5L261.5 255.5L250 258" stroke="#C2B296" stroke-width="2"/>
<path d="M471.5 275L476.719 257.696C477.355 255.589 476.168 253.364 474.063 252.717L472.334 252.186C470.655 251.671 469.508 250.119 469.508 248.363V243.748C469.508 243.238 469.411 242.733 469.221 242.26L467.14 237.068C466.317 235.015 467.316 232.684 469.37 231.865L472.08 230.783L481.612 228.405C482.057 228.294 482.37 227.894 482.37 227.435V221.603C482.37 221.306 482.337 221.01 482.271 220.721L477.967 201.698C477.901 201.408 477.868 201.112 477.868 200.815V192.919M477.868 192.919L470.679 200.093C469.929 200.842 468.913 201.262 467.854 201.262H456.647H446.456C445.966 201.262 445.48 201.172 445.022 200.997L438.691 198.567C437.827 198.235 436.874 198.213 435.995 198.505L429.28 200.739C428.273 201.074 427.441 201.795 426.966 202.743L421.277 214.097M477.868 192.919L480.82 188.711C481.757 187.376 481.789 185.606 480.902 184.238L479.3 181.768C477.575 179.107 479.485 175.592 482.657 175.592H520.66C521.277 175.592 521.885 175.735 522.437 176.009L532.5 181" stroke="#C2B296"/>
<path d="M432.5 75L444.869 92.5161C445.004 92.708 445.172 92.8745 445.365 93.008L453.291 98.4834C453.386 98.549 453.486 98.6062 453.591 98.6545L461.395 102.249C461.658 102.37 461.943 102.432 462.232 102.432H470.153H475.493C476.173 102.432 476.807 102.778 477.175 103.349L482.053 110.922C482.261 111.245 482.372 111.621 482.372 112.005V121.865C482.372 122.552 482.019 123.191 481.438 123.557L470.153 130.669L461.793 136.445M461.793 136.445L446.4 127.583C445.617 127.132 444.629 127.262 443.99 127.9L441.413 130.471C441.282 130.603 441.169 130.752 441.079 130.914L437.999 136.445L431.658 151C431.599 151.137 431.524 151.266 431.436 151.386L424.781 160.442C424.593 160.698 424.347 160.906 424.062 161.048L415.313 165.413C414.634 165.752 414.206 166.445 414.206 167.203V173.207C414.206 173.893 413.854 174.531 413.274 174.897L395.24 186.295C395.024 186.432 394.836 186.608 394.687 186.815L383.338 202.546M461.793 136.445L469.508 143.552C469.919 143.931 470.153 144.464 470.153 145.023V150.243C470.153 150.851 470.43 151.426 470.906 151.806L476.037 155.902C476.391 156.185 476.831 156.339 477.285 156.339H481.504C482.058 156.339 482.586 156.569 482.965 156.973L490.397 164.92C490.982 165.545 491.104 166.474 490.7 167.229L486.23 175.592" stroke="#C2B296"/>
<path d="M584.5 54C583.667 56.6667 576.6 62.6 555 65C534.183 67.313 518.815 69.5021 513.104 70.4037C512.708 70.4663 512.344 70.6472 512.053 70.9225L504.542 78.0158C503.919 78.6042 503.74 79.5241 504.097 80.3031L508.312 89.499C508.711 90.3704 508.436 91.4026 507.656 91.9597L498.5 98.5L489 105.5L482.5 111.5" stroke="#C2B296"/>
<path d="M213 113L224.032 109.782C224.641 109.605 225.296 109.727 225.807 110.104C234.563 116.56 253.709 127.713 266.5 125C276.53 122.872 283.923 118.686 288.065 115.555C289.957 114.125 292.442 113.505 294.68 114.288L300.691 116.392C300.896 116.463 301.087 116.568 301.258 116.701L320.792 131.894C322.547 133.259 324.707 134 326.931 134H333.897C335.777 134 336.618 131.642 335.164 130.452L331.1 127.127C329.927 126.167 330.206 124.302 331.609 123.728L339.26 120.598C339.419 120.533 339.586 120.489 339.757 120.466L370 116.5H381.885C383.554 116.5 384.489 114.577 383.458 113.264L381.742 111.08C381.057 110.209 381.212 108.947 382.087 108.266L400.298 94.1019C402.003 92.7757 403 90.7365 403 88.5764V82.4484C403 81.1737 403.348 79.9232 404.007 78.8318L420.5 51.5" stroke="#C2B296"/>
<path d="M335 122L337.932 111.248C337.977 111.083 338.04 110.931 338.125 110.783C342.669 102.854 351.811 85.9451 353 80C354.006 74.9708 351.335 70.0588 349.168 67.3249C348.541 66.5334 348.467 65.402 349.088 64.6058L363.34 46.3455C363.752 45.8174 363.873 45.118 363.661 44.4825L360.5 35.0005C360.207 34.121 360.557 33.1554 361.345 32.6675L370.121 27.2346C370.371 27.0801 370.583 26.8725 370.744 26.6266L378 15.5" stroke="#C2B296"/>
<path d="M208.5 181L265.788 193.314C266.539 193.475 267.228 193.85 267.773 194.393L271.533 198.146C272.65 199.261 274.319 199.614 275.792 199.049L288.256 194.265C289.412 193.821 290.71 193.938 291.768 194.582L316.456 209.605M316.456 209.605C308.953 223.295 301.5 251.5 300.5 254M316.456 209.605L347.967 203.829L360.779 200.176C361.237 200.045 361.715 199.998 362.19 200.035L409.001 203.723C409.873 203.792 410.699 204.145 411.351 204.727L422.345 214.544C422.491 214.674 422.627 214.814 422.752 214.964L428.995 222.44L432.191 225.63C433.364 226.801 433.694 228.574 433.019 230.088L429.509 237.97C429.174 238.722 428.616 239.352 427.91 239.775L423.219 242.583C422.786 242.843 422.411 243.176 422.096 243.571C420.312 245.803 413.851 253.572 410 254" stroke="#C2B296"/>
<path d="M432.5 75.5L423.711 54.5L402.518 17.4117C402.014 16.5311 401.1 15.9643 400.088 15.9052L335.028 12.1061C333.911 12.0409 332.851 12.6024 332.278 13.5628L313.182 45.5363C312.359 46.9143 310.598 47.4005 309.184 46.6395L306.14 45C305.538 44.6764 304.845 44.5674 304.174 44.6911L287.265 47.8058C286.583 47.9314 285.966 48.2892 285.519 48.8183L282.098 52.8611C281.268 53.8412 279.907 54.1849 278.712 53.7162L256.612 45.0493C255.73 44.7036 254.737 44.7943 253.933 45.294L219.218 66.8646C219.073 66.9547 218.936 67.057 218.808 67.1705L210.536 74.5235C210.184 74.8368 209.762 75.0625 209.306 75.1825L204.603 76.4203C202.601 76.9472 201.721 79.2962 202.886 81.0084L208.875 89.8168C208.958 89.9388 209.032 90.0667 209.096 90.1995L215.195 102.833C215.689 103.855 215.563 105.068 214.872 105.967L211.622 110.191C211.219 110.716 211 111.359 211 112.02V114.85C211 115.278 211.092 115.702 211.269 116.092L215.439 125.265C215.795 126.05 215.797 126.951 215.443 127.737L211.5 136.5L211.235 137.163C210.789 138.278 211.05 139.55 211.899 140.399L212.341 140.841C212.77 141.27 213.059 141.819 213.17 142.416L215.359 154.239C215.452 154.738 215.416 155.253 215.255 155.734L204.541 187.876C204.206 188.883 204.427 189.991 205.122 190.792L252.476 245.321C253.118 246.06 253.359 247.066 253.121 248.015L251 256.5" stroke="#C2B296" stroke-width="2"/>
<path d="M261.098 216.755C261.418 217.125 261.648 217.475 261.788 217.805C261.928 218.125 261.998 218.45 261.998 218.78C261.998 219.44 261.768 219.975 261.308 220.385C260.848 220.795 260.203 221 259.373 221H255.098L254.978 219.71H259.373C259.813 219.71 260.153 219.625 260.393 219.455C260.633 219.285 260.753 219.055 260.753 218.765C260.753 218.585 260.703 218.405 260.603 218.225C260.513 218.035 260.358 217.81 260.138 217.55L257.333 214.325L258.218 213.44L261.098 216.755ZM267.257 219.71C267.307 219.71 267.342 219.755 267.362 219.845C267.392 219.925 267.407 220.1 267.407 220.37C267.407 220.63 267.392 220.8 267.362 220.88C267.342 220.96 267.307 221 267.257 221H266.867C266.107 221 265.527 220.775 265.127 220.325C264.737 219.865 264.542 219.215 264.542 218.375V211.295H265.787V218.315C265.787 219.245 266.167 219.71 266.927 219.71H267.257ZM271.285 218.615C271.285 219.355 271.06 219.94 270.61 220.37C270.16 220.79 269.565 221 268.825 221H267.265C267.165 221 267.115 220.79 267.115 220.37C267.115 219.93 267.165 219.71 267.265 219.71H268.825C269.185 219.71 269.475 219.615 269.695 219.425C269.925 219.225 270.04 218.95 270.04 218.6V216.17H271.285V218.615ZM267.67 224.135V222.89H269.26V224.135H267.67ZM273.214 210.53C273.004 210.53 272.839 210.57 272.719 210.65C272.599 210.72 272.509 210.835 272.449 210.995L272.059 211.925L271.219 211.55L271.669 210.395C271.819 210.025 272.009 209.77 272.239 209.63C272.469 209.49 272.794 209.42 273.214 209.42H276.889V210.53H273.214ZM275.074 212.66V221H273.829V212.66H275.074ZM279.7 220.565C279.7 221.395 279.535 222.12 279.205 222.74C278.875 223.36 278.41 223.835 277.81 224.165C277.22 224.495 276.54 224.66 275.77 224.66H274.72L274.6 223.37H275.74C276.59 223.37 277.255 223.12 277.735 222.62C278.215 222.13 278.455 221.445 278.455 220.565V216.17H279.7V220.565ZM284.798 220.565C284.798 221.395 284.633 222.12 284.303 222.74C283.973 223.36 283.508 223.835 282.908 224.165C282.318 224.495 281.638 224.66 280.868 224.66H280.448L280.328 223.37H280.838C281.688 223.37 282.353 223.12 282.833 222.62C283.313 222.13 283.553 221.445 283.553 220.565V216.17H284.798V220.565ZM283.268 214.37V213.125H284.858V214.37H283.268Z" fill="#CEC5B6"/>
<path d="M332.792 176.37C333.642 176.37 334.307 176.12 334.787 175.62C335.267 175.13 335.507 174.445 335.507 173.565V169.17H336.752V171.555C336.752 171.925 336.857 172.21 337.067 172.41C337.287 172.61 337.602 172.71 338.012 172.71H338.207C338.307 172.71 338.357 172.93 338.357 173.37C338.357 173.79 338.307 174 338.207 174H338.012C337.742 174 337.492 173.955 337.262 173.865C337.032 173.765 336.862 173.64 336.752 173.49V173.67C336.742 174.47 336.572 175.17 336.242 175.77C335.912 176.38 335.452 176.845 334.862 177.165C334.272 177.495 333.592 177.66 332.822 177.66H332.402L332.282 176.37H332.792ZM347.383 172.71C347.483 172.71 347.533 172.93 347.533 173.37C347.533 173.79 347.483 174 347.383 174C346.723 174 346.228 174.09 345.898 174.27C345.568 174.45 345.263 174.805 344.983 175.335L343.753 177.6H343.063C341.983 177.6 341.138 177.3 340.528 176.7C339.918 176.11 339.613 175.27 339.613 174.18V174H338.203C338.103 174 338.053 173.79 338.053 173.37C338.053 172.93 338.103 172.71 338.203 172.71H339.613V171.105C339.613 170.105 339.863 169.315 340.363 168.735C340.863 168.155 341.543 167.865 342.403 167.865C343.233 167.865 343.888 168.105 344.368 168.585C344.848 169.055 345.088 169.7 345.088 170.52C345.088 171.16 344.908 171.74 344.548 172.26C344.188 172.78 343.683 173.19 343.033 173.49C342.393 173.79 341.668 173.945 340.858 173.955V174.135C340.858 174.885 341.038 175.44 341.398 175.8C341.768 176.17 342.323 176.355 343.063 176.355L343.978 174.675C344.278 174.135 344.568 173.73 344.848 173.46C345.138 173.18 345.478 172.985 345.868 172.875C346.258 172.765 346.763 172.71 347.383 172.71ZM343.843 170.595C343.843 170.125 343.713 169.765 343.453 169.515C343.203 169.255 342.848 169.125 342.388 169.125C341.898 169.125 341.518 169.295 341.248 169.635C340.988 169.975 340.858 170.465 340.858 171.105V172.71C341.778 172.71 342.503 172.52 343.033 172.14C343.573 171.76 343.843 171.245 343.843 170.595ZM348.558 172.71C348.998 172.71 349.338 172.605 349.578 172.395C349.828 172.185 349.953 171.895 349.953 171.525V169.17H351.213V171.525C351.213 172.315 351.658 172.71 352.548 172.71C352.988 172.71 353.328 172.605 353.568 172.395C353.818 172.185 353.943 171.895 353.943 171.525V169.17H355.188V171.525C355.188 171.905 355.293 172.2 355.503 172.41C355.723 172.61 356.043 172.71 356.463 172.71C356.883 172.71 357.203 172.61 357.423 172.41C357.643 172.2 357.753 171.905 357.753 171.525V169.17H358.998V171.495C358.998 172.275 358.768 172.89 358.308 173.34C357.858 173.78 357.243 174 356.463 174C355.453 174 354.803 173.69 354.513 173.07C354.143 173.69 353.488 174 352.548 174C351.488 174 350.813 173.69 350.523 173.07C350.153 173.69 349.498 174 348.558 174H347.388C347.288 174 347.238 173.79 347.238 173.37C347.238 172.93 347.288 172.71 347.388 172.71H348.558ZM355.218 164.13V165.315H353.853V164.13H355.218ZM356.508 166.185V167.37H352.548V166.185H356.508ZM367.649 174C366.769 174 366.104 173.77 365.654 173.31C365.214 172.85 364.994 172.215 364.994 171.405V169.17H366.239V171.24C366.239 172.22 366.734 172.71 367.724 172.71H373.109C373.549 172.71 373.889 172.625 374.129 172.455C374.369 172.285 374.489 172.055 374.489 171.765C374.489 171.565 374.439 171.37 374.339 171.18C374.249 170.98 374.094 170.77 373.874 170.55L370.364 167.055V165.975L375.824 163.8L376.199 165L371.819 166.725L374.789 169.71C375.749 170.67 376.454 171.35 376.904 171.75C377.354 172.15 377.704 172.41 377.954 172.53C378.214 172.65 378.509 172.71 378.839 172.71C378.939 172.71 378.989 172.93 378.989 173.37C378.989 173.79 378.939 174 378.839 174C378.409 174 378.054 173.96 377.774 173.88C377.494 173.79 377.189 173.625 376.859 173.385C376.539 173.135 376.114 172.745 375.584 172.215C375.534 172.745 375.289 173.175 374.849 173.505C374.419 173.835 373.839 174 373.109 174H367.649ZM380.638 172.71C381.028 172.71 381.338 172.61 381.568 172.41C381.798 172.21 381.913 171.94 381.913 171.6V169.17H383.158V171.57C383.158 171.94 383.258 172.225 383.458 172.425C383.668 172.615 383.968 172.71 384.358 172.71H384.778C384.878 172.71 384.928 172.925 384.928 173.355C384.928 173.785 384.878 174 384.778 174H384.313C383.393 174 382.793 173.705 382.513 173.115C382.163 173.705 381.538 174 380.638 174H378.839C378.739 174 378.688 173.79 378.688 173.37C378.688 172.93 378.739 172.71 378.839 172.71H380.638ZM381.928 175.89V177.075H377.968V175.89H381.928ZM388.805 171.615C388.805 172.355 388.58 172.94 388.13 173.37C387.68 173.79 387.085 174 386.345 174H384.785C384.685 174 384.635 173.79 384.635 173.37C384.635 172.93 384.685 172.71 384.785 172.71H386.345C386.705 172.71 386.995 172.615 387.215 172.425C387.445 172.225 387.56 171.95 387.56 171.6V169.17H388.805V171.615ZM386.525 167.37V166.125H388.115V167.37H386.525Z" fill="#CEC5B6"/>
<path d="M270.162 90.785V89.54H271.752V90.785H270.162ZM267.087 90.8C267.087 91.53 267.317 92.065 267.777 92.405C268.237 92.745 268.977 92.915 269.997 92.915H273.192L273.072 94.205H269.907C267.197 94.205 265.842 93.115 265.842 90.935C265.842 90.035 266.092 89.245 266.592 88.565C267.092 87.885 267.917 87.28 269.067 86.75L271.827 85.49C271.697 85.12 271.567 84.84 271.437 84.65C271.307 84.46 271.137 84.325 270.927 84.245C270.727 84.165 270.447 84.125 270.087 84.125H266.547L266.712 82.82H270.297C270.887 82.82 271.367 82.915 271.737 83.105C272.117 83.295 272.427 83.62 272.667 84.08C272.907 84.54 273.112 85.19 273.282 86.03L269.562 87.8C268.632 88.24 267.987 88.685 267.627 89.135C267.267 89.595 267.087 90.15 267.087 90.8ZM282.81 87.71C282.86 87.71 282.895 87.755 282.915 87.845C282.945 87.925 282.96 88.1 282.96 88.37C282.96 88.63 282.945 88.8 282.915 88.88C282.895 88.96 282.86 89 282.81 89H281.37C281.28 90.14 280.89 91.035 280.2 91.685C279.51 92.335 278.61 92.66 277.5 92.66H275.655L275.535 91.37H277.515C278.315 91.37 278.95 91.155 279.42 90.725C279.9 90.305 280.145 89.73 280.155 89H278.655C277.625 89 276.88 88.79 276.42 88.37C275.97 87.94 275.745 87.275 275.745 86.375C275.745 85.755 275.865 85.205 276.105 84.725C276.345 84.235 276.68 83.86 277.11 83.6C277.55 83.33 278.045 83.195 278.595 83.195C279.465 83.195 280.15 83.485 280.65 84.065C281.15 84.645 281.4 85.44 281.4 86.45V87.71H282.81ZM276.99 86.3C276.99 86.81 277.115 87.175 277.365 87.395C277.625 87.605 278.08 87.71 278.73 87.71H280.155V86.54C280.155 85.85 280.015 85.33 279.735 84.98C279.455 84.63 279.05 84.455 278.52 84.455C278.06 84.455 277.69 84.625 277.41 84.965C277.13 85.305 276.99 85.75 276.99 86.3ZM284.606 87.71C284.996 87.71 285.306 87.61 285.536 87.41C285.766 87.21 285.881 86.94 285.881 86.6V84.17H287.126V86.57C287.126 86.94 287.226 87.225 287.426 87.425C287.636 87.615 287.936 87.71 288.326 87.71H288.746C288.846 87.71 288.896 87.925 288.896 88.355C288.896 88.785 288.846 89 288.746 89H288.281C287.361 89 286.761 88.705 286.481 88.115C286.131 88.705 285.506 89 284.606 89H282.806C282.706 89 282.656 88.79 282.656 88.37C282.656 87.93 282.706 87.71 282.806 87.71H284.606ZM285.431 82.37V81.125H287.021V82.37H285.431ZM291.408 87.71C291.748 87.71 292.003 87.69 292.173 87.65C291.363 87.35 290.803 87.03 290.493 86.69C290.183 86.34 290.028 85.875 290.028 85.295C290.028 84.765 290.153 84.285 290.403 83.855C290.653 83.415 290.993 83.07 291.423 82.82C291.863 82.57 292.358 82.445 292.908 82.445C293.828 82.445 294.538 82.73 295.038 83.3C295.548 83.86 295.803 84.65 295.803 85.67V86.18C295.803 87.11 295.493 87.815 294.873 88.295C294.253 88.765 293.338 89 292.128 89H288.753C288.653 89 288.603 88.79 288.603 88.37C288.603 87.93 288.653 87.71 288.753 87.71H291.408ZM294.018 87.425C294.378 87.125 294.558 86.685 294.558 86.105V85.745C294.558 85.065 294.413 84.555 294.123 84.215C293.843 83.875 293.428 83.705 292.878 83.705C292.438 83.705 292.058 83.86 291.738 84.17C291.428 84.47 291.273 84.835 291.273 85.265C291.273 85.595 291.353 85.875 291.513 86.105C291.673 86.335 291.948 86.555 292.338 86.765C292.728 86.965 293.288 87.185 294.018 87.425ZM292.038 80.87V79.625H293.628V80.87H292.038Z" fill="#CEC5B6"/>
<path d="M366.5 74.565C366.5 75.395 366.335 76.12 366.005 76.74C365.675 77.36 365.21 77.835 364.61 78.165C364.02 78.495 363.34 78.66 362.57 78.66H362.15L362.03 77.37H362.54C363.39 77.37 364.055 77.12 364.535 76.62C365.015 76.13 365.255 75.445 365.255 74.565V70.17H366.5V74.565ZM371.767 73.71C371.817 73.71 371.852 73.755 371.872 73.845C371.902 73.925 371.917 74.1 371.917 74.37C371.917 74.63 371.902 74.8 371.872 74.88C371.852 74.96 371.817 75 371.767 75H371.377C370.617 75 370.037 74.775 369.637 74.325C369.247 73.865 369.052 73.215 369.052 72.375V65.295H370.297V72.315C370.297 73.245 370.677 73.71 371.437 73.71H371.767ZM372.944 73.71C373.384 73.71 373.724 73.605 373.964 73.395C374.214 73.185 374.339 72.895 374.339 72.525V70.17H375.599V72.525C375.599 73.315 376.044 73.71 376.934 73.71C377.374 73.71 377.714 73.605 377.954 73.395C378.204 73.185 378.329 72.895 378.329 72.525V70.17H379.574V72.525C379.574 72.905 379.679 73.2 379.889 73.41C380.109 73.61 380.429 73.71 380.849 73.71C381.269 73.71 381.589 73.61 381.809 73.41C382.029 73.2 382.139 72.905 382.139 72.525V70.17H383.384V72.495C383.384 73.275 383.154 73.89 382.694 74.34C382.244 74.78 381.629 75 380.849 75C379.839 75 379.189 74.69 378.899 74.07C378.529 74.69 377.874 75 376.934 75C375.874 75 375.199 74.69 374.909 74.07C374.539 74.69 373.884 75 372.944 75H371.774C371.674 75 371.624 74.79 371.624 74.37C371.624 73.93 371.674 73.71 371.774 73.71H372.944ZM379.604 65.13V66.315H378.239V65.13H379.604ZM380.894 67.185V68.37H376.934V67.185H380.894ZM387.201 65.295V73.71H389.196C389.556 73.71 389.846 73.61 390.066 73.41C390.296 73.21 390.411 72.94 390.411 72.6V65.295H391.656V72.615C391.656 73.355 391.431 73.94 390.981 74.37C390.531 74.79 389.936 75 389.196 75H385.956V65.295H387.201Z" fill="#CEC5B6"/>
<path d="M425.543 177.71C425.893 177.71 426.173 177.635 426.383 177.485C426.603 177.335 426.713 177.14 426.713 176.9C426.713 176.7 426.633 176.37 426.473 175.91C426.313 175.45 425.893 174.29 425.213 172.43C425.183 172.35 425.153 172.275 425.123 172.205C425.093 172.125 425.068 172.055 425.048 171.995L426.203 171.47L427.958 176.45C428.118 176.91 428.298 177.235 428.498 177.425C428.698 177.615 428.973 177.71 429.323 177.71H429.638C429.738 177.71 429.788 177.93 429.788 178.37C429.788 178.64 429.773 178.815 429.743 178.895C429.723 178.965 429.688 179 429.638 179H429.278C428.818 179 428.438 178.925 428.138 178.775C427.838 178.625 427.603 178.385 427.433 178.055C427.243 178.385 426.993 178.625 426.683 178.775C426.383 178.925 426.003 179 425.543 179H422.033L421.913 177.71H425.543ZM431.444 177.71C431.834 177.71 432.144 177.61 432.374 177.41C432.604 177.21 432.719 176.94 432.719 176.6V174.17H433.964V176.57C433.964 176.94 434.064 177.225 434.264 177.425C434.474 177.615 434.774 177.71 435.164 177.71H435.584C435.684 177.71 435.734 177.925 435.734 178.355C435.734 178.785 435.684 179 435.584 179H435.119C434.199 179 433.599 178.705 433.319 178.115C432.969 178.705 432.344 179 431.444 179H429.644C429.544 179 429.494 178.79 429.494 178.37C429.494 177.93 429.544 177.71 429.644 177.71H431.444ZM432.269 172.37V171.125H433.859V172.37H432.269ZM438.246 177.71C438.586 177.71 438.841 177.69 439.011 177.65C438.201 177.35 437.641 177.03 437.331 176.69C437.021 176.34 436.866 175.875 436.866 175.295C436.866 174.765 436.991 174.285 437.241 173.855C437.491 173.415 437.831 173.07 438.261 172.82C438.701 172.57 439.196 172.445 439.746 172.445C440.666 172.445 441.376 172.73 441.876 173.3C442.386 173.86 442.641 174.65 442.641 175.67V176.18C442.641 177.11 442.331 177.815 441.711 178.295C441.091 178.765 440.176 179 438.966 179H435.591C435.491 179 435.441 178.79 435.441 178.37C435.441 177.93 435.491 177.71 435.591 177.71H438.246ZM440.856 177.425C441.216 177.125 441.396 176.685 441.396 176.105V175.745C441.396 175.065 441.251 174.555 440.961 174.215C440.681 173.875 440.266 173.705 439.716 173.705C439.276 173.705 438.896 173.86 438.576 174.17C438.266 174.47 438.111 174.835 438.111 175.265C438.111 175.595 438.191 175.875 438.351 176.105C438.511 176.335 438.786 176.555 439.176 176.765C439.566 176.965 440.126 177.185 440.856 177.425ZM441.651 169.685V170.87H437.691V169.685H441.651ZM447.191 176.555C447.191 176.925 447.296 177.21 447.506 177.41C447.726 177.61 448.041 177.71 448.451 177.71H448.646C448.746 177.71 448.796 177.93 448.796 178.37C448.796 178.79 448.746 179 448.646 179H448.451C448.181 179 447.931 178.955 447.701 178.865C447.471 178.765 447.301 178.64 447.191 178.49V178.67C447.181 179.47 447.011 180.17 446.681 180.77C446.351 181.38 445.891 181.845 445.301 182.165C444.711 182.495 444.031 182.66 443.261 182.66H442.211L442.091 181.37H443.231C444.081 181.37 444.746 181.12 445.226 180.62C445.706 180.13 445.946 179.445 445.946 178.565V174.17H447.191V176.555ZM449.243 177.71C449.683 177.71 450.023 177.605 450.263 177.395C450.513 177.185 450.638 176.895 450.638 176.525V174.17H451.883V176.48C451.883 176.78 451.933 177.015 452.033 177.185C452.143 177.345 452.308 177.465 452.528 177.545C453.468 175.875 454.333 174.675 455.123 173.945C455.913 173.205 456.728 172.835 457.568 172.835C458.108 172.835 458.593 172.97 459.023 173.24C459.453 173.5 459.788 173.865 460.028 174.335C460.278 174.795 460.403 175.325 460.403 175.925C460.403 176.475 460.283 176.96 460.043 177.38C460.183 177.5 460.358 177.585 460.568 177.635C460.788 177.685 461.068 177.71 461.408 177.71H461.753C461.853 177.71 461.903 177.93 461.903 178.37C461.903 178.79 461.853 179 461.753 179H461.408C460.888 179 460.473 178.955 460.163 178.865C459.863 178.765 459.593 178.585 459.353 178.325C458.813 178.775 458.113 179 457.253 179H453.248C452.208 179 451.528 178.705 451.208 178.115C450.858 178.705 450.203 179 449.243 179H448.643C448.543 179 448.493 178.79 448.493 178.37C448.493 177.93 448.543 177.71 448.643 177.71H449.243ZM457.253 177.71C457.853 177.71 458.318 177.55 458.648 177.23C458.988 176.91 459.158 176.475 459.158 175.925C459.158 175.385 458.998 174.945 458.678 174.605C458.358 174.255 457.958 174.08 457.478 174.08C456.918 174.08 456.343 174.375 455.753 174.965C455.163 175.545 454.498 176.46 453.758 177.71H457.253ZM464.408 177.71C464.748 177.71 465.003 177.69 465.173 177.65C464.363 177.35 463.803 177.03 463.493 176.69C463.183 176.34 463.028 175.875 463.028 175.295C463.028 174.765 463.153 174.285 463.403 173.855C463.653 173.415 463.993 173.07 464.423 172.82C464.863 172.57 465.358 172.445 465.908 172.445C466.828 172.445 467.538 172.73 468.038 173.3C468.548 173.86 468.803 174.65 468.803 175.67V176.18C468.803 177.11 468.493 177.815 467.873 178.295C467.253 178.765 466.338 179 465.128 179H461.753C461.653 179 461.603 178.79 461.603 178.37C461.603 177.93 461.653 177.71 461.753 177.71H464.408ZM467.018 177.425C467.378 177.125 467.558 176.685 467.558 176.105V175.745C467.558 175.065 467.413 174.555 467.123 174.215C466.843 173.875 466.428 173.705 465.878 173.705C465.438 173.705 465.058 173.86 464.738 174.17C464.428 174.47 464.273 174.835 464.273 175.265C464.273 175.595 464.353 175.875 464.513 176.105C464.673 176.335 464.948 176.555 465.338 176.765C465.728 176.965 466.288 177.185 467.018 177.425ZM467.813 169.685V170.87H463.853V169.685H467.813Z" fill="#CEC5B6"/>
<path d="M484.874 56.565C484.874 57.395 484.709 58.12 484.379 58.74C484.049 59.36 483.584 59.835 482.984 60.165C482.394 60.495 481.714 60.66 480.944 60.66H480.524L480.404 59.37H480.914C481.764 59.37 482.429 59.12 482.909 58.62C483.389 58.13 483.629 57.445 483.629 56.565V52.17H484.874V56.565ZM483.344 50.37V49.125H484.934V50.37H483.344ZM490.141 55.71C490.191 55.71 490.226 55.755 490.246 55.845C490.276 55.925 490.291 56.1 490.291 56.37C490.291 56.63 490.276 56.8 490.246 56.88C490.226 56.96 490.191 57 490.141 57H489.751C488.991 57 488.411 56.775 488.011 56.325C487.621 55.865 487.426 55.215 487.426 54.375V47.295H488.671V54.315C488.671 55.245 489.051 55.71 489.811 55.71H490.141ZM494.168 54.615C494.168 55.355 493.943 55.94 493.493 56.37C493.043 56.79 492.448 57 491.708 57H490.148C490.048 57 489.998 56.79 489.998 56.37C489.998 55.93 490.048 55.71 490.148 55.71H491.708C492.068 55.71 492.358 55.615 492.578 55.425C492.808 55.225 492.923 54.95 492.923 54.6V52.17H494.168V54.615ZM490.553 60.135V58.89H492.143V60.135H490.553ZM494.756 59.37C495.606 59.37 496.271 59.12 496.751 58.62C497.231 58.13 497.471 57.445 497.471 56.565V52.17H498.716V54.555C498.716 54.925 498.821 55.21 499.031 55.41C499.251 55.61 499.566 55.71 499.976 55.71H500.171C500.271 55.71 500.321 55.93 500.321 56.37C500.321 56.79 500.271 57 500.171 57H499.976C499.706 57 499.456 56.955 499.226 56.865C498.996 56.765 498.826 56.64 498.716 56.49V56.67C498.706 57.47 498.536 58.17 498.206 58.77C497.876 59.38 497.416 59.845 496.826 60.165C496.236 60.495 495.556 60.66 494.786 60.66H494.366L494.246 59.37H494.756ZM501.338 55.71C501.778 55.71 502.118 55.605 502.358 55.395C502.608 55.185 502.733 54.895 502.733 54.525V52.17H503.993V54.525C503.993 55.315 504.438 55.71 505.328 55.71C505.768 55.71 506.108 55.605 506.348 55.395C506.598 55.185 506.723 54.895 506.723 54.525V52.17H507.968V54.525C507.968 54.905 508.073 55.2 508.283 55.41C508.503 55.61 508.823 55.71 509.243 55.71C509.663 55.71 509.983 55.61 510.203 55.41C510.423 55.2 510.533 54.905 510.533 54.525V52.17H511.778V54.495C511.778 55.275 511.548 55.89 511.088 56.34C510.638 56.78 510.023 57 509.243 57C508.233 57 507.583 56.69 507.293 56.07C506.923 56.69 506.268 57 505.328 57C504.268 57 503.593 56.69 503.303 56.07C502.933 56.69 502.278 57 501.338 57H500.168C500.068 57 500.018 56.79 500.018 56.37C500.018 55.93 500.068 55.71 500.168 55.71H501.338Z" fill="#CEC5B6"/>
<path d="M528.468 100C527.588 100 526.923 99.77 526.473 99.31C526.033 98.85 525.813 98.215 525.813 97.405V95.17H527.058V97.24C527.058 98.22 527.553 98.71 528.543 98.71H533.928C534.368 98.71 534.708 98.625 534.948 98.455C535.188 98.285 535.308 98.055 535.308 97.765C535.308 97.565 535.258 97.37 535.158 97.18C535.068 96.98 534.913 96.77 534.693 96.55L531.183 93.055V91.975L536.643 89.8L537.018 91L532.638 92.725L535.608 95.71C536.568 96.67 537.273 97.35 537.723 97.75C538.173 98.15 538.523 98.41 538.773 98.53C539.033 98.65 539.328 98.71 539.658 98.71C539.758 98.71 539.808 98.93 539.808 99.37C539.808 99.79 539.758 100 539.658 100C539.228 100 538.873 99.96 538.593 99.88C538.313 99.79 538.008 99.625 537.678 99.385C537.358 99.135 536.933 98.745 536.403 98.215C536.353 98.745 536.108 99.175 535.668 99.505C535.238 99.835 534.658 100 533.928 100H528.468ZM540.827 98.71C541.267 98.71 541.607 98.605 541.847 98.395C542.097 98.185 542.222 97.895 542.222 97.525V95.17H543.482V97.525C543.482 98.315 543.927 98.71 544.817 98.71C545.257 98.71 545.597 98.605 545.837 98.395C546.087 98.185 546.212 97.895 546.212 97.525V95.17H547.457V97.525C547.457 97.905 547.562 98.2 547.772 98.41C547.992 98.61 548.312 98.71 548.732 98.71C549.152 98.71 549.472 98.61 549.692 98.41C549.912 98.2 550.022 97.905 550.022 97.525V95.17H551.267V97.495C551.267 98.275 551.037 98.89 550.577 99.34C550.127 99.78 549.512 100 548.732 100C547.722 100 547.072 99.69 546.782 99.07C546.412 99.69 545.757 100 544.817 100C543.757 100 543.082 99.69 542.792 99.07C542.422 99.69 541.767 100 540.827 100H539.657C539.557 100 539.507 99.79 539.507 99.37C539.507 98.93 539.557 98.71 539.657 98.71H540.827ZM553.839 90.295H555.084V100H553.839V90.295ZM559.798 99.565C559.798 100.395 559.633 101.12 559.303 101.74C558.973 102.36 558.508 102.835 557.908 103.165C557.318 103.495 556.638 103.66 555.868 103.66H554.818L554.698 102.37H555.838C556.688 102.37 557.353 102.12 557.833 101.62C558.313 101.13 558.553 100.445 558.553 99.565V95.17H559.798V99.565Z" fill="#CEC5B6"/>
<path d="M354.148 227.71C354.588 227.71 354.928 227.625 355.168 227.455C355.408 227.285 355.528 227.055 355.528 226.765C355.528 226.565 355.478 226.37 355.378 226.18C355.288 225.98 355.133 225.77 354.913 225.55L351.403 222.055V220.975L356.863 218.8L357.238 220L352.858 221.725L355.873 224.74C356.473 225.35 356.773 226.03 356.773 226.78C356.773 227.44 356.543 227.975 356.083 228.385C355.623 228.795 354.978 229 354.148 229H348.688C347.808 229 347.143 228.77 346.693 228.31C346.253 227.85 346.033 227.215 346.033 226.405V224.17H347.278V226.24C347.278 227.22 347.773 227.71 348.763 227.71H354.148ZM361.56 228.565C361.56 229.395 361.395 230.12 361.065 230.74C360.735 231.36 360.27 231.835 359.67 232.165C359.08 232.495 358.4 232.66 357.63 232.66H356.58L356.46 231.37H357.6C358.45 231.37 359.115 231.12 359.595 230.62C360.075 230.13 360.315 229.445 360.315 228.565V224.17H361.56V228.565ZM366.828 227.71C366.878 227.71 366.913 227.755 366.933 227.845C366.963 227.925 366.978 228.1 366.978 228.37C366.978 228.63 366.963 228.8 366.933 228.88C366.913 228.96 366.878 229 366.828 229H366.438C365.678 229 365.098 228.775 364.698 228.325C364.308 227.865 364.113 227.215 364.113 226.375V219.295H365.358V226.315C365.358 227.245 365.738 227.71 366.498 227.71H366.828ZM368.635 227.71C369.025 227.71 369.335 227.61 369.565 227.41C369.795 227.21 369.91 226.94 369.91 226.6V224.17H371.155V226.57C371.155 226.94 371.255 227.225 371.455 227.425C371.665 227.615 371.965 227.71 372.355 227.71H372.775C372.875 227.71 372.925 227.925 372.925 228.355C372.925 228.785 372.875 229 372.775 229H372.31C371.39 229 370.79 228.705 370.51 228.115C370.16 228.705 369.535 229 368.635 229H366.835C366.735 229 366.685 228.79 366.685 228.37C366.685 227.93 366.735 227.71 366.835 227.71H368.635ZM369.46 222.37V221.125H371.05V222.37H369.46ZM376.937 227.71C377.367 227.71 377.702 227.625 377.942 227.455C378.192 227.285 378.317 227.055 378.317 226.765C378.317 226.565 378.267 226.37 378.167 226.18C378.077 225.98 377.922 225.77 377.702 225.55L374.177 222.055V220.975L379.652 218.8L380.027 220L375.647 221.725L378.647 224.74C379.257 225.35 379.562 226.03 379.562 226.78C379.562 227.44 379.332 227.975 378.872 228.385C378.412 228.795 377.767 229 376.937 229H372.782C372.682 229 372.632 228.79 372.632 228.37C372.632 227.93 372.682 227.71 372.782 227.71H376.937Z" fill="#CEC5B6"/>
<path d="M431.303 255.565C431.303 256.395 431.138 257.12 430.808 257.74C430.478 258.36 430.013 258.835 429.413 259.165C428.823 259.495 428.143 259.66 427.373 259.66H426.953L426.833 258.37H427.343C428.193 258.37 428.858 258.12 429.338 257.62C429.818 257.13 430.058 256.445 430.058 255.565V251.17H431.303V255.565ZM436.571 254.71C436.621 254.71 436.656 254.755 436.676 254.845C436.706 254.925 436.721 255.1 436.721 255.37C436.721 255.63 436.706 255.8 436.676 255.88C436.656 255.96 436.621 256 436.571 256H436.181C435.421 256 434.841 255.775 434.441 255.325C434.051 254.865 433.856 254.215 433.856 253.375V246.295H435.101V253.315C435.101 254.245 435.481 254.71 436.241 254.71H436.571ZM445.758 254.71C445.858 254.71 445.908 254.93 445.908 255.37C445.908 255.79 445.858 256 445.758 256C445.098 256 444.603 256.09 444.273 256.27C443.943 256.45 443.638 256.805 443.358 257.335L442.128 259.6H441.438C440.358 259.6 439.513 259.3 438.903 258.7C438.293 258.11 437.988 257.27 437.988 256.18V256H436.578C436.478 256 436.428 255.79 436.428 255.37C436.428 254.93 436.478 254.71 436.578 254.71H437.988V253.105C437.988 252.105 438.238 251.315 438.738 250.735C439.238 250.155 439.918 249.865 440.778 249.865C441.608 249.865 442.263 250.105 442.743 250.585C443.223 251.055 443.463 251.7 443.463 252.52C443.463 253.16 443.283 253.74 442.923 254.26C442.563 254.78 442.058 255.19 441.408 255.49C440.768 255.79 440.043 255.945 439.233 255.955V256.135C439.233 256.885 439.413 257.44 439.773 257.8C440.143 258.17 440.698 258.355 441.438 258.355L442.353 256.675C442.653 256.135 442.943 255.73 443.223 255.46C443.513 255.18 443.853 254.985 444.243 254.875C444.633 254.765 445.138 254.71 445.758 254.71ZM442.218 252.595C442.218 252.125 442.088 251.765 441.828 251.515C441.578 251.255 441.223 251.125 440.763 251.125C440.273 251.125 439.893 251.295 439.623 251.635C439.363 251.975 439.233 252.465 439.233 253.105V254.71C440.153 254.71 440.878 254.52 441.408 254.14C441.948 253.76 442.218 253.245 442.218 252.595ZM449.783 253.615C449.783 254.355 449.558 254.94 449.108 255.37C448.658 255.79 448.063 256 447.323 256H445.763C445.663 256 445.613 255.79 445.613 255.37C445.613 254.93 445.663 254.71 445.763 254.71H447.323C447.683 254.71 447.973 254.615 448.193 254.425C448.423 254.225 448.538 253.95 448.538 253.6V251.17H449.783V253.615ZM446.168 259.135V257.89H447.758V259.135H446.168ZM455.043 254.71C455.093 254.71 455.128 254.755 455.148 254.845C455.178 254.925 455.193 255.1 455.193 255.37C455.193 255.63 455.178 255.8 455.148 255.88C455.128 255.96 455.093 256 455.043 256H454.653C453.893 256 453.313 255.775 452.913 255.325C452.523 254.865 452.328 254.215 452.328 253.375V246.295H453.573V253.315C453.573 254.245 453.953 254.71 454.713 254.71H455.043ZM456.1 254.71C456.85 254.71 457.475 254.65 457.975 254.53C458.475 254.41 458.99 254.2 459.52 253.9L461.8 252.565C461.64 252.025 461.42 251.65 461.14 251.44C460.87 251.23 460.46 251.125 459.91 251.125H456.4L456.565 249.82H460.12C460.72 249.82 461.215 249.92 461.605 250.12C461.995 250.32 462.32 250.65 462.58 251.11C462.84 251.56 463.065 252.185 463.255 252.985L460.105 254.935C459.465 255.335 458.85 255.615 458.26 255.775C457.67 255.925 456.935 256 456.055 256H455.05C454.95 256 454.9 255.79 454.9 255.37C454.9 254.93 454.95 254.71 455.05 254.71H456.1ZM460.6 257.89V259.075H456.64V257.89H460.6ZM457.96 261.13V259.945H459.28V261.13H457.96Z" fill="#CEC5B6"/>
<path d="M483.658 237.225C483.658 236.595 483.288 236.28 482.548 236.28H479.698V233.55C479.698 232.72 479.948 232.05 480.448 231.54C480.948 231.02 481.623 230.76 482.473 230.76H484.378L484.483 232.005H482.443C482.003 232.005 481.643 232.15 481.363 232.44C481.093 232.72 480.958 233.075 480.958 233.505V234.99H482.758C483.478 234.99 484.013 235.18 484.363 235.56C484.723 235.93 484.903 236.46 484.903 237.15C484.903 237.78 484.718 238.365 484.348 238.905C483.988 239.445 483.493 239.87 482.863 240.18C482.243 240.5 481.553 240.66 480.793 240.66H479.638C478.378 240.66 477.408 240.295 476.728 239.565C476.048 238.835 475.708 237.815 475.708 236.505V233.67H476.953V236.475C476.953 237.425 477.183 238.145 477.643 238.635C478.103 239.125 478.778 239.37 479.668 239.37H480.793C481.353 239.37 481.848 239.275 482.278 239.085C482.718 238.905 483.058 238.65 483.298 238.32C483.538 238 483.658 237.635 483.658 237.225ZM490.005 236.565C490.005 237.395 489.84 238.12 489.51 238.74C489.18 239.36 488.715 239.835 488.115 240.165C487.525 240.495 486.845 240.66 486.075 240.66H485.655L485.535 239.37H486.045C486.895 239.37 487.56 239.12 488.04 238.62C488.52 238.13 488.76 237.445 488.76 236.565V232.17H490.005V236.565ZM495.272 235.71C495.322 235.71 495.357 235.755 495.377 235.845C495.407 235.925 495.422 236.1 495.422 236.37C495.422 236.63 495.407 236.8 495.377 236.88C495.357 236.96 495.322 237 495.272 237H494.882C494.122 237 493.542 236.775 493.142 236.325C492.752 235.865 492.557 235.215 492.557 234.375V227.295H493.802V234.315C493.802 235.245 494.182 235.71 494.942 235.71H495.272ZM497.079 235.71C497.469 235.71 497.779 235.61 498.009 235.41C498.239 235.21 498.354 234.94 498.354 234.6V232.17H499.599V234.57C499.599 234.94 499.699 235.225 499.899 235.425C500.109 235.615 500.409 235.71 500.799 235.71H501.219C501.319 235.71 501.369 235.925 501.369 236.355C501.369 236.785 501.319 237 501.219 237H500.754C499.834 237 499.234 236.705 498.954 236.115C498.604 236.705 497.979 237 497.079 237H495.279C495.179 237 495.129 236.79 495.129 236.37C495.129 235.93 495.179 235.71 495.279 235.71H497.079ZM498.369 238.89V240.075H494.409V238.89H498.369ZM503.027 235.71C503.417 235.71 503.727 235.61 503.957 235.41C504.187 235.21 504.302 234.94 504.302 234.6V232.17H505.547V234.57C505.547 234.94 505.647 235.225 505.847 235.425C506.057 235.615 506.357 235.71 506.747 235.71H507.167C507.267 235.71 507.317 235.925 507.317 236.355C507.317 236.785 507.267 237 507.167 237H506.702C505.782 237 505.182 236.705 504.902 236.115C504.552 236.705 503.927 237 503.027 237H501.227C501.127 237 501.077 236.79 501.077 236.37C501.077 235.93 501.127 235.71 501.227 235.71H503.027ZM505.862 229.185V230.37H501.902V229.185H505.862ZM508.344 235.71C508.784 235.71 509.124 235.605 509.364 235.395C509.614 235.185 509.739 234.895 509.739 234.525V232.17H510.999V234.525C510.999 235.315 511.444 235.71 512.334 235.71C512.774 235.71 513.114 235.605 513.354 235.395C513.604 235.185 513.729 234.895 513.729 234.525V232.17H514.974V234.525C514.974 234.905 515.079 235.2 515.289 235.41C515.509 235.61 515.829 235.71 516.249 235.71C516.669 235.71 516.989 235.61 517.209 235.41C517.429 235.2 517.539 234.905 517.539 234.525V232.17H518.784V234.495C518.784 235.275 518.554 235.89 518.094 236.34C517.644 236.78 517.029 237 516.249 237C515.239 237 514.589 236.69 514.299 236.07C513.929 236.69 513.274 237 512.334 237C511.274 237 510.599 236.69 510.309 236.07C509.939 236.69 509.284 237 508.344 237H507.174C507.074 237 507.024 236.79 507.024 236.37C507.024 235.93 507.074 235.71 507.174 235.71H508.344ZM515.004 227.13V228.315H513.639V227.13H515.004ZM516.294 229.185V230.37H512.334V229.185H516.294ZM526.906 232.755C527.226 233.125 527.456 233.475 527.596 233.805C527.736 234.125 527.806 234.45 527.806 234.78C527.806 235.44 527.576 235.975 527.116 236.385C526.656 236.795 526.011 237 525.181 237H520.906L520.786 235.71H525.181C525.621 235.71 525.961 235.625 526.201 235.455C526.441 235.285 526.561 235.055 526.561 234.765C526.561 234.585 526.511 234.405 526.411 234.225C526.321 234.035 526.166 233.81 525.946 233.55L523.141 230.325L524.026 229.44L526.906 232.755Z" fill="#CEC5B6"/>
<path d="M3.53335 65.4311L2.08947 66.8773C1.40569 67.5621 1.09427 68.5347 1.25313 69.4894L1.47568 70.8268C1.57823 71.443 1.87061 72.0119 2.31203 72.454L6.70002 76.8487L19.0572 89.8438C19.2624 90.0596 19.4343 90.3047 19.5673 90.5711L22.3686 96.1824C22.478 96.4016 22.5602 96.6333 22.6132 96.8725L25.0667 107.93L28.152 120.908C28.206 121.136 28.2333 121.369 28.2333 121.602V140.207C28.2333 140.672 28.3415 141.131 28.5492 141.547L31.1308 146.718C31.3085 147.074 31.4136 147.462 31.44 147.859L31.9834 156.021C32.0162 156.514 32.1702 156.991 32.4316 157.41L35.2 161.846L41.9599 171.438C42.4903 172.19 42.6457 173.145 42.3815 174.027L41.0262 178.552C40.9425 178.831 40.9 179.121 40.9 179.413V186.779C40.9 187.071 40.9425 187.361 41.0262 187.64L42.4562 192.414C42.6769 193.151 43.1723 193.775 43.8399 194.157L46.8845 195.9C47.116 196.032 47.3288 196.195 47.5173 196.384L48.6681 197.536C48.9746 197.843 49.2109 198.213 49.3607 198.62L53.4769 209.81C53.5366 209.973 53.5822 210.14 53.6131 210.31L54.5655 215.556C54.7341 216.485 55.33 217.28 56.174 217.703L59.4399 219.338C59.7444 219.491 60.0727 219.59 60.4106 219.633L64.9667 220.203L69.6495 220.789C69.9043 220.821 70.154 220.886 70.3924 220.981L78.8639 224.375C79.3039 224.551 79.7795 224.621 80.2516 224.578L86.5 224.009L103.358 222.2C103.929 222.139 104.507 222.243 105.021 222.5L111.45 225.72C111.704 225.847 111.975 225.938 112.255 225.989L118.533 227.132C118.711 227.164 118.891 227.181 119.071 227.181H122.302C122.5 227.181 122.698 227.2 122.892 227.239L124.694 227.6C125.387 227.739 126.008 228.117 126.449 228.669L128.3 230.986L133.023 238.673C133.249 239.042 133.553 239.357 133.913 239.597L138.59 242.72C138.905 242.93 139.257 243.079 139.627 243.159L147.436 244.835C147.765 244.905 148.104 244.92 148.438 244.878L152.537 244.365C152.844 244.327 153.143 244.241 153.423 244.111L169.145 236.844C169.359 236.745 169.583 236.672 169.814 236.626L171.735 236.241C172.32 236.124 172.928 236.184 173.479 236.414L179.821 239.061C180.094 239.175 180.383 239.247 180.678 239.277L186.318 239.842C186.483 239.858 186.65 239.861 186.816 239.85L195.809 239.25C195.98 239.238 196.153 239.242 196.323 239.26L208.1 240.501L220.509 242.365C220.681 242.391 220.849 242.432 221.014 242.486L227.694 244.717C228.137 244.864 228.538 245.113 228.867 245.443L237.867 254.456L241.254 257.36C241.739 257.776 242.343 258.026 242.98 258.074L245.187 258.241C245.373 258.255 245.56 258.251 245.745 258.231L249.479 257.815C250.526 257.699 251.435 257.042 251.874 256.084L255.717 247.706C256.196 246.662 256.037 245.437 255.308 244.55L219.656 201.19C219.552 201.064 219.438 200.946 219.315 200.838L208.663 191.518C207.933 190.879 207.557 189.927 207.654 188.962L208.967 175.833C208.989 175.612 209.035 175.394 209.106 175.183L212 166.5L215.67 157.325C215.885 156.787 215.94 156.197 215.828 155.628L213.358 143.148C213.234 142.521 212.912 141.95 212.441 141.518L191 121.885L178.811 107.235C178.497 106.859 178.096 106.564 177.642 106.378L165.725 101.496C164.887 101.152 164.249 100.448 163.989 99.5804L162.937 96.0693C162.662 95.1519 161.966 94.4208 161.063 94.1016L153.038 91.2648C152.21 90.9721 151.552 90.3315 151.237 89.5118L148.66 82.8005C148.598 82.6389 148.522 82.4829 148.433 82.3343L146.922 79.8119C146.753 79.5299 146.539 79.2775 146.288 79.065L131.179 66.2604C130.554 65.7307 129.739 65.4797 128.924 65.5656L119.145 66.5966C118.509 66.6636 117.869 66.5259 117.317 66.2035L103.542 58.1556C103.163 57.9342 102.837 57.6323 102.588 57.2711L97.8994 50.4888C97.4912 49.8981 96.8846 49.4735 96.19 49.292L86.8439 46.8502C84.8749 46.3357 83.0174 47.9929 83.3048 50.0076C83.3238 50.1408 83.3333 50.2752 83.3333 50.4097V51.2009C83.3333 52.1231 82.7435 52.9418 81.8688 53.2338C81.5817 53.3297 81.2776 53.3636 80.9765 53.3335L76.0556 52.8406C75.4341 52.7784 74.8086 52.9117 74.2665 53.2219L63.3559 59.4662C62.4376 59.9918 61.281 59.8368 60.5333 59.088L59.8043 58.3579C59.4515 58.0045 59.1924 57.5686 59.0507 57.0898L48.636 21.9091C48.2588 20.6349 47.0883 19.7607 45.7594 19.7607H39.6333H31.3773C30.5809 19.7607 29.8171 20.0774 29.2544 20.641L12.6437 37.2773C12.0821 37.8398 11.7667 38.6022 11.7667 39.397V53.8522C11.7667 54.3736 11.6308 54.886 11.3724 55.3389L9.37455 58.8405C9.28063 59.0052 9.17132 59.1605 9.04809 59.3045L5.43335 63.5282L3.53335 65.4311Z" fill="#B8CCC9" stroke="#104946" stroke-width="2"/>
<path opacity="0.1" d="M90.3453 171.681L81.0899 155.056L71.3346 133.455C70.6149 131.862 71.4051 129.993 73.0498 129.399L87.3276 124.243C87.7697 124.083 88.2431 124.03 88.7097 124.087L106.695 126.28C107.804 126.415 108.897 125.923 109.53 125.002L113.138 119.754C113.68 118.966 113.813 117.966 113.497 117.064L110.847 109.491C110.622 108.849 110.622 108.151 110.847 107.509L113.558 99.7637C113.839 98.9595 113.765 98.0735 113.355 97.3269L109.331 90.0108C108.816 89.0753 108.838 87.937 109.387 87.0215L112.572 81.7125C112.852 81.2463 113 80.7128 113 80.169V74.6706C113 74.229 113.098 73.7928 113.286 73.3932L115.77 68.1145C116.456 66.655 115.866 64.9136 114.433 64.1725L103.256 58.3911C102.762 58.1354 102.348 57.7472 102.062 57.27L98.5816 51.4693C98.2067 50.8445 97.6173 50.3775 96.9234 50.1555L88.0266 47.3085C86.5838 46.8468 85.0232 47.5332 84.3883 48.9086L83.3044 51.2572C82.814 52.3196 81.7507 53 80.5805 53H76.6417C76.2187 53 75.8005 53.0894 75.4145 53.2625L63.3866 58.6543C62.2507 59.1635 60.9183 58.9183 60.0381 58.0381L59.5334 57.5334C59.1833 57.1833 58.9252 56.7519 58.7823 56.2777L48.5816 22.4297C48.2299 21.2627 47.207 20.4245 45.9936 20.3089L37.73 19.5219C37.5769 19.5073 37.4229 19.5045 37.2694 19.5136L30.2116 19.9287C29.4345 19.9744 28.7055 20.3205 28.1788 20.8937L12.7231 37.7131C12.2554 38.222 11.9778 38.8768 11.9372 39.5668L11.056 54.5473C11.0196 55.1671 10.7917 55.7604 10.4038 56.2452L1.79138 67.0108C1.28544 67.6432 1.0567 68.4534 1.15715 69.257L1.3752 71.0014C1.4562 71.6494 1.74644 72.2533 2.20186 72.7213L19.1201 90.1095C19.3713 90.3677 19.574 90.6691 19.7184 90.9991L22.89 98.2485C22.9632 98.4158 23.0209 98.5895 23.0626 98.7673L28.4211 121.663C28.4735 121.887 28.5 122.116 28.5 122.346V139.956C28.5 140.316 28.5647 140.673 28.691 141.009L31.3686 148.15C31.4559 148.382 31.5139 148.625 31.5413 148.872L32.4188 156.769C32.4721 157.249 32.6408 157.709 32.9103 158.111L41.8242 171.377C42.2577 172.023 42.4238 172.811 42.2876 173.576L41.5 178L40.568 186.854C40.5232 187.28 40.5701 187.71 40.7055 188.116L42.107 192.321C42.3587 193.076 42.8998 193.7 43.6115 194.056L45.7006 195.1C46.2222 195.361 46.6565 195.768 46.9503 196.272L50 201.5L53.7649 210.442C53.9201 210.81 54 211.206 54 211.606V215.081C54 216.251 54.6804 217.314 55.7428 217.804L60.122 219.826C60.3728 219.941 60.6384 220.022 60.9113 220.065L69.6813 221.45C69.8932 221.483 70.1008 221.539 70.3007 221.617L78.3236 224.737C78.7681 224.91 79.2474 224.974 79.7218 224.925L102.174 222.586C102.714 222.53 103.26 222.621 103.753 222.851L110.065 225.797C110.353 225.932 110.661 226.019 110.976 226.057L122.364 227.424C122.783 227.474 123.187 227.612 123.55 227.83L125.038 228.723C125.343 228.906 125.614 229.143 125.837 229.421L133.341 238.801C133.447 238.933 133.564 239.057 133.69 239.169L137.54 242.591C137.843 242.861 138.199 243.066 138.584 243.195L144.828 245.276C145.27 245.423 145.74 245.466 146.201 245.4L152.068 244.562C152.355 244.521 152.634 244.439 152.896 244.318L170.404 236.274C170.797 236.093 171.224 236 171.656 236H173.305C173.762 236 174.214 236.105 174.624 236.306L179.7 238.792C179.981 238.93 180.281 239.023 180.591 239.068L190.286 240.469C190.429 240.49 190.572 240.5 190.716 240.5H206.774C206.924 240.5 207.075 240.511 207.223 240.534L223.032 242.929C223.342 242.976 223.643 243.072 223.924 243.212L228.115 245.308C228.37 245.435 228.606 245.599 228.815 245.793L241.637 257.698C242.192 258.214 242.921 258.5 243.678 258.5H248.759C249.836 258.5 250.83 257.923 251.364 256.988L252.5 255L255.796 247.172C256.229 246.144 256.055 244.961 255.346 244.1L226 208.5L219.5 201.5L209.066 191.52C208.394 190.877 208.058 189.958 208.157 189.033L209.234 178.986C209.376 177.658 208.335 176.5 207 176.5L203.769 176.303C203.036 176.258 202.313 176.484 201.735 176.937L194.091 182.93C193.786 183.17 193.436 183.348 193.063 183.454L180.527 187.029C180.26 187.105 179.983 187.143 179.705 187.143H169.091C168.732 187.143 168.376 187.079 168.04 186.953L158.746 183.475C158.424 183.355 158.125 183.18 157.862 182.958L150.738 176.942C150.196 176.484 149.511 176.234 148.802 176.234H130.885C130.7 176.234 130.515 176.217 130.333 176.183L110.302 172.434C110.12 172.4 109.935 172.383 109.75 172.383H103.31C102.662 172.383 102.031 172.593 101.512 172.981L98.7785 175.027C97.8037 175.757 96.4845 175.825 95.4398 175.2L91.4254 172.796C90.9738 172.526 90.6013 172.141 90.3453 171.681Z" fill="#104946"/>
<path d="M22 90.5C22.6881 90.156 23.3761 89.1018 23.7385 88.4776C23.9192 88.1661 24.1352 87.8745 24.3992 87.6296L25.8627 86.2717C26.2337 85.9275 26.6859 85.6827 27.177 85.5601L30.8027 84.6556C31.3067 84.5298 31.7672 84.2696 32.1348 83.9027C33.4723 82.568 35.7122 82.8682 36.6511 84.5078L36.9711 85.0665C37.2265 85.5126 37.5923 85.8856 38.0333 86.1497L39.1172 86.7987C40.0221 87.3405 40.576 88.3178 40.576 89.3725V92.3601C40.576 93.0629 40.3293 93.7435 39.8787 94.2829L39.3049 94.9702C38.2346 96.2518 38.4168 98.1608 39.7102 99.2168L43.3381 102.179C44.0323 102.746 44.9437 102.973 45.8226 102.797L50.2781 101.908C50.6657 101.831 51.0648 101.831 51.4525 101.908L55.7932 102.774C56.7371 102.963 57.5333 103.592 57.9339 104.468L81.0899 155.056L90.7361 172.383M90.7361 172.383C90.7361 172.383 53.5 199.5 52 200M90.7361 172.383L95.4398 175.2C96.4845 175.825 97.8037 175.757 98.7785 175.027L101.512 172.981C102.031 172.593 102.662 172.383 103.31 172.383H109.75C109.935 172.383 110.12 172.4 110.302 172.434L130.333 176.183C130.515 176.217 130.7 176.234 130.885 176.234H148.802C149.511 176.234 150.196 176.484 150.738 176.942L157.862 182.958C158.125 183.18 158.424 183.355 158.746 183.475L168.04 186.953C168.376 187.079 168.732 187.143 169.091 187.143H179.705C179.983 187.143 180.26 187.105 180.527 187.029L193.063 183.454C193.436 183.348 193.786 183.17 194.091 182.93L201.735 176.937C202.313 176.484 203.036 176.258 203.769 176.303L207 176.5" stroke="#84A29D"/>
<path d="M70 130.5L87.3318 124.241C87.7712 124.083 88.2416 124.029 88.7054 124.084L107.171 126.282C108.293 126.416 109.395 125.908 110.022 124.967L113.186 120.221C113.7 119.451 113.829 118.486 113.536 117.608L110.824 109.472C110.614 108.842 110.619 108.16 110.839 107.533L113.535 99.828C113.83 98.9866 113.735 98.0579 113.276 97.2935L108.977 90.1279C108.38 89.1338 108.41 87.885 109.053 86.9204L112.496 81.7558C112.825 81.263 113 80.6839 113 80.0917V74.7082C113 74.2425 113.108 73.7831 113.317 73.3666L116 68" stroke="#84A29D"/>
<path d="M65.1352 82.71C65.4952 82.71 65.7852 82.61 66.0052 82.41C66.2252 82.21 66.3352 81.945 66.3352 81.615V79.17H67.5802V81.645C67.5802 82.375 67.3552 82.95 66.9052 83.37C66.4652 83.79 65.8752 84 65.1352 84H59.7652C58.8852 84 58.2202 83.77 57.7702 83.31C57.3302 82.85 57.1102 82.215 57.1102 81.405V79.17H58.3552V81.24C58.3552 82.22 58.8502 82.71 59.8402 82.71H65.1352ZM61.5352 87.135V85.89H63.1252V87.135H61.5352ZM72.8511 82.71C72.9011 82.71 72.9361 82.755 72.9561 82.845C72.9861 82.925 73.0011 83.1 73.0011 83.37C73.0011 83.63 72.9861 83.8 72.9561 83.88C72.9361 83.96 72.9011 84 72.8511 84H72.4611C71.7011 84 71.1211 83.775 70.7211 83.325C70.3311 82.865 70.1361 82.215 70.1361 81.375V74.295H71.3811V81.315C71.3811 82.245 71.7611 82.71 72.5211 82.71H72.8511ZM74.6584 82.71C75.0484 82.71 75.3584 82.61 75.5884 82.41C75.8184 82.21 75.9334 81.94 75.9334 81.6V79.17H77.1784V81.57C77.1784 81.94 77.2784 82.225 77.4784 82.425C77.6884 82.615 77.9884 82.71 78.3784 82.71H78.7984C78.8984 82.71 78.9484 82.925 78.9484 83.355C78.9484 83.785 78.8984 84 78.7984 84H78.3334C77.4134 84 76.8134 83.705 76.5334 83.115C76.1834 83.705 75.5584 84 74.6584 84H72.8584C72.7584 84 72.7084 83.79 72.7084 83.37C72.7084 82.93 72.7584 82.71 72.8584 82.71H74.6584ZM75.4834 77.37V76.125H77.0734V77.37H75.4834ZM80.6057 82.71C80.9957 82.71 81.3057 82.61 81.5357 82.41C81.7657 82.21 81.8807 81.94 81.8807 81.6V79.17H83.1257V81.57C83.1257 81.94 83.2257 82.225 83.4257 82.425C83.6357 82.615 83.9357 82.71 84.3257 82.71H84.7457C84.8457 82.71 84.8957 82.925 84.8957 83.355C84.8957 83.785 84.8457 84 84.7457 84H84.2807C83.3607 84 82.7607 83.705 82.4807 83.115C82.1307 83.705 81.5057 84 80.6057 84H78.8057C78.7057 84 78.6557 83.79 78.6557 83.37C78.6557 82.93 78.7057 82.71 78.8057 82.71H80.6057ZM81.8957 85.89V87.075H77.9357V85.89H81.8957ZM85.0979 82.71C85.8079 82.71 86.1629 82.39 86.1629 81.75V81.135C86.1629 80.175 86.4179 79.42 86.9279 78.87C87.4379 78.32 88.1379 78.045 89.0279 78.045C89.9179 78.045 90.6029 78.305 91.0829 78.825C91.5629 79.345 91.8029 80.095 91.8029 81.075C91.8029 82.005 91.5529 82.725 91.0529 83.235C90.5529 83.745 89.8629 84 88.9829 84C87.9429 84 87.2429 83.69 86.8829 83.07C86.7129 83.39 86.4879 83.625 86.2079 83.775C85.9279 83.925 85.5579 84 85.0979 84H84.7529C84.6529 84 84.6029 83.79 84.6029 83.37C84.6029 82.93 84.6529 82.71 84.7529 82.71H85.0979ZM90.5579 81.075C90.5579 79.895 90.0329 79.305 88.9829 79.305C88.4529 79.305 88.0579 79.455 87.7979 79.755C87.5379 80.055 87.4079 80.515 87.4079 81.135C87.4079 81.625 87.5429 82.01 87.8129 82.29C88.0929 82.57 88.4829 82.71 88.9829 82.71C90.0329 82.71 90.5579 82.165 90.5579 81.075Z" fill="#104946"/>
<path d="M43.9214 154C43.0414 154 42.3764 153.77 41.9264 153.31C41.4864 152.85 41.2664 152.215 41.2664 151.405V149.17H42.5114V151.24C42.5114 152.22 43.0064 152.71 43.9964 152.71H49.3814C49.8214 152.71 50.1614 152.625 50.4014 152.455C50.6414 152.285 50.7614 152.055 50.7614 151.765C50.7614 151.565 50.7114 151.37 50.6114 151.18C50.5214 150.98 50.3664 150.77 50.1464 150.55L46.6364 147.055V145.975L52.0964 143.8L52.4714 145L48.0914 146.725L51.0614 149.71C52.0214 150.67 52.7264 151.35 53.1764 151.75C53.6264 152.15 53.9764 152.41 54.2264 152.53C54.4864 152.65 54.7814 152.71 55.1114 152.71C55.2114 152.71 55.2614 152.93 55.2614 153.37C55.2614 153.79 55.2114 154 55.1114 154C54.6814 154 54.3264 153.96 54.0464 153.88C53.7664 153.79 53.4614 153.625 53.1314 153.385C52.8114 153.135 52.3864 152.745 51.8564 152.215C51.8064 152.745 51.5614 153.175 51.1214 153.505C50.6914 153.835 50.1114 154 49.3814 154H43.9214ZM58.7254 152.71C59.0854 152.71 59.3754 152.615 59.5954 152.425C59.8154 152.225 59.9254 151.95 59.9254 151.6V149.17H61.1854V151.615C61.1854 152.355 60.9604 152.94 60.5104 153.37C60.0604 153.79 59.4654 154 58.7254 154H55.1114C55.0114 154 54.9604 153.79 54.9604 153.37C54.9604 152.93 55.0114 152.71 55.1114 152.71H58.7254ZM59.2204 155.89V157.075H55.2604V155.89H59.2204ZM61.7838 156.37C62.6338 156.37 63.2988 156.12 63.7788 155.62C64.2588 155.13 64.4988 154.445 64.4988 153.565V149.17H65.7438V151.555C65.7438 151.925 65.8488 152.21 66.0588 152.41C66.2788 152.61 66.5938 152.71 67.0038 152.71H67.1988C67.2988 152.71 67.3488 152.93 67.3488 153.37C67.3488 153.79 67.2988 154 67.1988 154H67.0038C66.7338 154 66.4838 153.955 66.2538 153.865C66.0238 153.765 65.8538 153.64 65.7438 153.49V153.67C65.7338 154.47 65.5638 155.17 65.2338 155.77C64.9038 156.38 64.4438 156.845 63.8538 157.165C63.2638 157.495 62.5838 157.66 61.8138 157.66H61.3938L61.2738 156.37H61.7838ZM70.0303 152.71C70.4203 152.71 70.7303 152.61 70.9603 152.41C71.1903 152.21 71.3053 151.94 71.3053 151.6V149.17H72.5503V151.57C72.5503 151.94 72.6503 152.225 72.8503 152.425C73.0603 152.615 73.3603 152.71 73.7503 152.71H74.1703C74.2703 152.71 74.3203 152.925 74.3203 153.355C74.3203 153.785 74.2703 154 74.1703 154H73.7053C72.7853 154 72.1853 153.705 71.9053 153.115C71.5553 153.705 70.9303 154 70.0303 154H67.1953C67.0953 154 67.0453 153.79 67.0453 153.37C67.0453 152.93 67.0953 152.71 67.1953 152.71H70.0303ZM70.9753 155.89V157.075H67.0153V155.89H70.9753ZM75.338 152.71C75.778 152.71 76.118 152.605 76.358 152.395C76.608 152.185 76.733 151.895 76.733 151.525V149.17H77.993V151.525C77.993 152.315 78.438 152.71 79.328 152.71C79.768 152.71 80.108 152.605 80.348 152.395C80.598 152.185 80.723 151.895 80.723 151.525V149.17H81.968V151.525C81.968 151.905 82.073 152.2 82.283 152.41C82.503 152.61 82.823 152.71 83.243 152.71C83.663 152.71 83.983 152.61 84.203 152.41C84.423 152.2 84.533 151.905 84.533 151.525V149.17H85.778V151.495C85.778 152.275 85.548 152.89 85.088 153.34C84.638 153.78 84.023 154 83.243 154C82.233 154 81.583 153.69 81.293 153.07C80.923 153.69 80.268 154 79.328 154C78.268 154 77.593 153.69 77.303 153.07C76.933 153.69 76.278 154 75.338 154H74.168C74.068 154 74.018 153.79 74.018 153.37C74.018 152.93 74.068 152.71 74.168 152.71H75.338Z" fill="#104946"/>
<path d="M141.354 133.755C141.674 134.125 141.904 134.475 142.044 134.805C142.184 135.125 142.254 135.45 142.254 135.78C142.254 136.44 142.024 136.975 141.564 137.385C141.104 137.795 140.459 138 139.629 138H135.354L135.234 136.71H139.629C140.069 136.71 140.409 136.625 140.649 136.455C140.889 136.285 141.009 136.055 141.009 135.765C141.009 135.585 140.959 135.405 140.859 135.225C140.769 135.035 140.614 134.81 140.394 134.55L137.589 131.325L138.474 130.44L141.354 133.755ZM146.801 135.555C146.801 135.925 146.906 136.21 147.116 136.41C147.336 136.61 147.651 136.71 148.061 136.71H148.256C148.356 136.71 148.406 136.93 148.406 137.37C148.406 137.79 148.356 138 148.256 138H148.061C147.791 138 147.541 137.955 147.311 137.865C147.081 137.765 146.911 137.64 146.801 137.49V137.67C146.791 138.47 146.621 139.17 146.291 139.77C145.961 140.38 145.501 140.845 144.911 141.165C144.321 141.495 143.641 141.66 142.871 141.66H141.821L141.701 140.37H142.841C143.691 140.37 144.356 140.12 144.836 139.62C145.316 139.13 145.556 138.445 145.556 137.565V133.17H146.801V135.555ZM154.538 125.865L154.793 126.675L149.663 128.805V127.905L154.538 125.865ZM152.408 136.71C152.838 136.71 153.173 136.625 153.413 136.455C153.663 136.285 153.788 136.055 153.788 135.765C153.788 135.565 153.738 135.37 153.638 135.18C153.548 134.98 153.393 134.77 153.173 134.55L149.648 131.055V129.975L155.123 127.8L155.498 129L151.118 130.725L154.118 133.74C154.728 134.35 155.033 135.03 155.033 135.78C155.033 136.44 154.803 136.975 154.343 137.385C153.883 137.795 153.238 138 152.408 138H148.253C148.153 138 148.103 137.79 148.103 137.37C148.103 136.93 148.153 136.71 148.253 136.71H152.408ZM160.536 136.71C160.586 136.71 160.621 136.755 160.641 136.845C160.671 136.925 160.686 137.1 160.686 137.37C160.686 137.63 160.671 137.8 160.641 137.88C160.621 137.96 160.586 138 160.536 138H160.146C159.386 138 158.806 137.775 158.406 137.325C158.016 136.865 157.821 136.215 157.821 135.375V128.295H159.066V135.315C159.066 136.245 159.446 136.71 160.206 136.71H160.536ZM161.713 136.71C162.153 136.71 162.493 136.605 162.733 136.395C162.983 136.185 163.108 135.895 163.108 135.525V133.17H164.368V135.525C164.368 136.315 164.813 136.71 165.703 136.71C166.143 136.71 166.483 136.605 166.723 136.395C166.973 136.185 167.098 135.895 167.098 135.525V133.17H168.343V135.525C168.343 135.905 168.448 136.2 168.658 136.41C168.878 136.61 169.198 136.71 169.618 136.71C170.028 136.71 170.343 136.605 170.563 136.395C170.793 136.185 170.908 135.895 170.908 135.525V133.17H172.153V135.525C172.153 136.315 172.548 136.71 173.338 136.71H173.773C173.883 136.71 173.938 136.93 173.938 137.37C173.938 137.63 173.923 137.8 173.893 137.88C173.863 137.96 173.823 138 173.773 138H173.338C172.378 138 171.758 137.705 171.478 137.115C171.128 137.705 170.508 138 169.618 138C168.608 138 167.958 137.69 167.668 137.07C167.298 137.69 166.643 138 165.703 138C164.643 138 163.968 137.69 163.678 137.07C163.308 137.69 162.653 138 161.713 138H160.543C160.443 138 160.393 137.79 160.393 137.37C160.393 136.93 160.443 136.71 160.543 136.71H161.713ZM168.373 128.13V129.315H167.008V128.13H168.373ZM169.663 130.185V131.37H165.703V130.185H169.663ZM177.805 135.615C177.805 136.355 177.58 136.94 177.13 137.37C176.68 137.79 176.085 138 175.345 138H173.785C173.685 138 173.635 137.79 173.635 137.37C173.635 136.93 173.685 136.71 173.785 136.71H175.345C175.705 136.71 175.995 136.615 176.215 136.425C176.445 136.225 176.56 135.95 176.56 135.6V133.17H177.805V135.615ZM174.19 141.135V139.89H175.78V141.135H174.19Z" fill="#104946"/>
<path d="M146.957 210C146.077 210 145.412 209.77 144.962 209.31C144.522 208.85 144.302 208.215 144.302 207.405V205.17H145.547V207.24C145.547 208.22 146.042 208.71 147.032 208.71H152.417C152.857 208.71 153.197 208.625 153.437 208.455C153.677 208.285 153.797 208.055 153.797 207.765C153.797 207.565 153.747 207.37 153.647 207.18C153.557 206.98 153.402 206.77 153.182 206.55L149.672 203.055V201.975L155.132 199.8L155.507 201L151.127 202.725L154.097 205.71C155.057 206.67 155.762 207.35 156.212 207.75C156.662 208.15 157.012 208.41 157.262 208.53C157.522 208.65 157.817 208.71 158.147 208.71C158.247 208.71 158.297 208.93 158.297 209.37C158.297 209.79 158.247 210 158.147 210C157.717 210 157.362 209.96 157.082 209.88C156.802 209.79 156.497 209.625 156.167 209.385C155.847 209.135 155.422 208.745 154.892 208.215C154.842 208.745 154.597 209.175 154.157 209.505C153.727 209.835 153.147 210 152.417 210H146.957ZM159.316 208.71C159.756 208.71 160.096 208.605 160.336 208.395C160.586 208.185 160.711 207.895 160.711 207.525V205.17H161.971V207.525C161.971 208.315 162.416 208.71 163.306 208.71C163.746 208.71 164.086 208.605 164.326 208.395C164.576 208.185 164.701 207.895 164.701 207.525V205.17H165.946V207.525C165.946 207.905 166.051 208.2 166.261 208.41C166.481 208.61 166.801 208.71 167.221 208.71C167.641 208.71 167.961 208.61 168.181 208.41C168.401 208.2 168.511 207.905 168.511 207.525V205.17H169.756V207.495C169.756 208.275 169.526 208.89 169.066 209.34C168.616 209.78 168.001 210 167.221 210C166.211 210 165.561 209.69 165.271 209.07C164.901 209.69 164.246 210 163.306 210C162.246 210 161.571 209.69 161.281 209.07C160.911 209.69 160.256 210 159.316 210H158.146C158.046 210 157.996 209.79 157.996 209.37C157.996 208.93 158.046 208.71 158.146 208.71H159.316ZM175.043 208.71C175.093 208.71 175.128 208.755 175.148 208.845C175.178 208.925 175.193 209.1 175.193 209.37C175.193 209.63 175.178 209.8 175.148 209.88C175.128 209.96 175.093 210 175.043 210H174.653C173.893 210 173.313 209.775 172.913 209.325C172.523 208.865 172.328 208.215 172.328 207.375V200.295H173.573V207.315C173.573 208.245 173.953 208.71 174.713 208.71H175.043ZM176.1 208.71C176.85 208.71 177.475 208.65 177.975 208.53C178.475 208.41 178.99 208.2 179.52 207.9L181.8 206.565C181.64 206.025 181.42 205.65 181.14 205.44C180.87 205.23 180.46 205.125 179.91 205.125H176.4L176.565 203.82H180.12C180.72 203.82 181.215 203.92 181.605 204.12C181.995 204.32 182.32 204.65 182.58 205.11C182.84 205.56 183.065 206.185 183.255 206.985L180.105 208.935C179.465 209.335 178.85 209.615 178.26 209.775C177.67 209.925 176.935 210 176.055 210H175.05C174.95 210 174.9 209.79 174.9 209.37C174.9 208.93 174.95 208.71 175.05 208.71H176.1ZM177.825 213.135V211.89H179.415V213.135H177.825Z" fill="#104946"/>
</svg>
