<svg width="486" height="284" viewBox="0 0 486 284" fill="none" xmlns="http://www.w3.org/2000/svg">
<path d="M64.7889 192.643L11.8759 181.269C5.50002 179 5.23702 181.126 5.00002 183.5L3.49973 188C3.36073 189.394 5.87906 192.882 7.00006 193.722L11.0001 197.5C11.2421 197.682 13.3051 200.768 13.5001 201L28.0001 217.5L49.5001 242C49.7871 242.345 50.8431 243.58 51.0001 244L52.0001 245.5C52.4281 246.642 52.6271 246.954 52.0001 248L52.0029 250.492C51.6749 251.04 51.5009 251.666 51.5009 252.305L50.5001 255C50.5001 256.721 52.5001 256.5 54.6169 255.829C54.8719 255.829 55.1259 255.798 55.3729 255.736L59.0009 254.829L82.5009 246.829L84.5229 246.02C84.8399 245.893 85.1729 245.808 85.5119 245.765L87.1439 245.561C88.3209 245.414 89.5019 245.797 90.3689 246.606L96.1309 251.984C96.3769 252.213 96.6499 252.41 96.9449 252.571L101.106 254.841C101.693 255.161 102.352 255.329 103.021 255.329H105.009C105.336 255.329 105.661 255.289 105.979 255.21L109.501 254.329L116.625 252.429C116.875 252.363 117.131 252.32 117.389 252.303L123.806 251.875C124.266 251.845 124.728 251.894 125.171 252.02L126.523 252.407C127.474 252.679 128.289 253.298 128.924 254.057C129.922 255.25 131.209 256.537 131.501 256.829C131.766 257.094 132.487 257.375 133.136 257.582C133.701 257.762 134.302 257.769 134.883 257.653L141.501 256.329L145.76 255.051C146.249 254.904 146.763 254.853 147.271 254.899L151.134 255.25C151.705 255.302 152.259 255.476 152.757 255.761L155.501 257.329C156.834 258.162 160.101 258.929 160.501 259.329C160.85 259.678 162.238 259.545 163.14 259.395C163.381 259.355 163.615 259.283 163.842 259.193L165.51 258.525C165.836 258.395 166.143 258.222 166.424 258.012L169.275 255.873C169.753 255.515 170.305 255.268 170.891 255.151L171.283 255.073C172.076 254.914 172.899 255 173.643 255.318L176.001 256.329L190.001 264.829L192.844 266.606C193.498 267.015 194.357 266.855 194.82 266.237C195.222 265.701 195.216 264.962 194.804 264.433L192.244 261.142C192.082 260.934 191.942 260.71 191.824 260.475L189.043 254.912C188.689 254.206 188.553 253.411 188.651 252.627L188.759 251.761C188.912 250.541 189.617 249.46 190.671 248.827L193.159 247.334C193.712 247.002 194.337 246.809 194.982 246.771L201.434 246.392C202.133 246.351 202.831 246.494 203.457 246.807L206.518 248.338C207.752 248.954 208.58 250.163 208.711 251.536L209.466 259.463C209.489 259.706 209.535 259.947 209.602 260.183L209.847 261.04C210.25 262.45 211.393 263.527 212.825 263.846L215.001 264.329L232.501 267.329L245.001 270.329L252.501 271.329L259.501 272.329L265.501 273.329L273.175 274.683C273.72 274.779 274.239 274.987 274.699 275.294L277.001 276.829L281.055 279.532C281.351 279.729 281.672 279.886 282.009 279.998L286.885 281.624C287.293 281.76 287.72 281.829 288.15 281.829H294.501L301.919 281.393C302.628 281.351 303.312 281.121 303.903 280.728L305.253 279.828C305.745 279.499 306.159 279.066 306.464 278.558L307.145 277.423C307.38 277.03 307.547 276.599 307.637 276.15L307.895 274.859C307.965 274.507 307.988 274.148 307.962 273.79L307.629 269.114C307.548 267.993 308.013 266.903 308.876 266.183C309.875 265.351 311.253 265.143 312.454 265.643L315.394 266.868C315.97 267.108 316.623 266.767 316.756 266.157L318.921 256.199C318.974 255.953 319.004 255.702 319.011 255.45L319.983 217.047C319.995 216.572 320.091 216.103 320.268 215.662L323.001 208.829L323.174 208.136C323.386 207.288 323.315 206.394 322.97 205.59L320.501 199.829C320.188 198.89 320.356 197.856 320.95 197.064L320.978 197.026C321.32 196.57 321.781 196.217 322.31 196.005L324.001 195.329L328.022 193.721C328.664 193.464 329.228 193.045 329.66 192.506L330.256 191.761C330.742 191.153 331.04 190.416 331.114 189.641L331.736 183.111C331.895 181.44 330.994 179.847 329.48 179.123L321.32 175.22C320.781 174.963 320.191 174.829 319.594 174.829H302.501H282.561C282.19 174.829 281.82 174.881 281.462 174.983L280.722 175.194C279.348 175.587 278.287 176.683 277.941 178.07L277.903 178.222C277.646 179.251 277.808 180.34 278.353 181.25L279.743 183.566C280.232 184.381 280.415 185.344 280.259 186.282L280.15 186.935C280.052 187.524 279.823 188.083 279.481 188.571L276.742 192.485C276.582 192.714 276.398 192.925 276.194 193.115L269.638 199.234C269.218 199.626 268.719 199.923 268.174 200.105L268.117 200.124C267.709 200.26 267.282 200.329 266.852 200.329H245.111C244.707 200.329 244.305 200.268 243.918 200.147L237.659 198.191C236.904 197.955 236.096 197.948 235.337 198.171L228.585 200.157C228.198 200.271 227.83 200.443 227.495 200.667L227.354 200.76C226.794 201.133 226.338 201.642 226.027 202.238L222.843 208.341C221.648 210.631 218.628 211.205 216.676 209.513L210.341 204.02C209.695 203.46 208.887 203.122 208.035 203.055L161.191 199.364C160.716 199.327 160.238 199.374 159.78 199.505L146.968 203.158L116.956 208.659C115.99 208.836 114.994 208.652 114.155 208.142L90.7689 193.911C89.7109 193.267 88.4129 193.15 87.2569 193.594L74.7929 198.378C73.3199 198.943 71.6509 198.59 70.5339 197.475L66.7739 193.722C66.2289 193.179 65.5399 192.804 64.7889 192.643Z" fill="#A8BFBC"/>
<path d="M10 137.329L14.5 125.829L10 113.329L11.5 108.329L15 103.829L1 77.8286L8.5 73.8286L24.5 61.8286L53.5 43.8286L77 52.3286H81L86 46.8286L102 43.8286L109 45.8286H112L132.5 11.3286L173 13.8286L200 15.3286L222 52.3286L230.5 72.3286L231.5 59.3286L249 32.3286L291 11.3286L314 2.32855L318 1.32855L324 11.3286H327.5L338 5.82855L347.5 7.32855L362.5 5.82855L378 11.3286L380 13.3286L372.5 24.3286L371 37.3286L376 47.3286L383 51.8286H406.5L407.5 47.3286L422.5 37.3286L433.5 19.8286L439.5 17.3286L456.5 12.8286L463 13.3286L468 8.82855L482 18.8286L485 22.3286L482 26.3286L477 31.8286L478.5 47.3286L480.5 51.8286L474 69.3286L472.5 85.3286L471 88.3286L432.5 86.3286L423.5 93.8286L395 101.829L384 107.829L382 124.829L378 127.329L367 125.829L361.5 132.829L336.5 144.829L332 180.829L320 174.829H286H280L278 176.829V179.829L281 186.329L276.5 192.829L268 200.329H244L236 197.829L226.5 201.329L221 213.329L209 203.329L182.5 201.329L160 199.829L115.5 209.329L89 193.329L72.5 198.829L65 192.829L6.5 180L8 174.329L15 155.329L12.5 142.829L10 137.329Z" fill="#B8CCC9"/>
<path d="M231.3 74.3286V60.2354C231.3 59.6384 231.478 59.0549 231.811 58.5597L249.231 32.6908C249.516 32.2667 249.906 31.9226 250.361 31.6912L295.9 8.5746L315.161 1.19871C316.485 0.691529 317.984 1.1811 318.753 2.37235L323.712 10.0471C324.152 10.7278 324.848 11.2016 325.642 11.3607L326.556 11.5436C327.211 11.6749 327.891 11.5837 328.488 11.2845L338.237 6.40258C338.715 6.16344 339.247 6.05611 339.78 6.09169L348.466 6.67166L361.824 6.06354C362.204 6.04624 362.584 6.10135 362.944 6.22594L378.16 11.5012C378.618 11.6601 379.012 11.9647 379.281 12.3685C379.793 13.1388 379.774 14.1463 379.233 14.8968L372.418 24.3473C372.08 24.8168 371.884 25.3743 371.855 25.9524L371.309 36.8887C371.281 37.4533 371.413 38.0144 371.69 38.5073L376.632 47.3065C376.852 47.6984 377.157 48.0358 377.525 48.2939L382.524 51.7985C383.029 52.1523 383.63 52.342 384.246 52.342H404.222C405.019 52.342 405.783 52.0254 406.345 51.4618L406.78 51.0266C407.164 50.6422 407.436 50.1607 407.567 49.6336L407.737 48.9523C407.907 48.2734 408.308 47.6752 408.872 47.261L417.5 40.9244L422.937 36.0838C423.111 35.9284 423.267 35.7532 423.401 35.5617L427.633 29.5068L433.516 20.5637C433.832 20.0837 434.279 19.7044 434.804 19.4711L438.298 17.9184C438.432 17.8585 438.571 17.8087 438.713 17.7693L455.909 12.9927C456.299 12.8844 456.707 12.8561 457.108 12.9096L461.653 13.5156C463.029 13.6991 464.352 12.9145 464.85 11.6189L465.081 11.0172C465.794 9.16404 468.078 8.50201 469.671 9.68675L483.389 19.8872C484.796 20.9329 485.01 22.9565 483.854 24.2736L477.911 31.0438C477.352 31.6807 477.088 32.5244 477.185 33.3663L478.897 48.2272C478.921 48.4326 478.966 48.6351 479.031 48.8312L479.884 51.3947C480.089 52.0097 480.089 52.6744 479.884 53.2894L478.933 56.1479L474.043 68.3908C473.926 68.6846 473.856 68.995 473.836 69.3107L472.789 85.5579C472.684 87.1902 471.291 88.4374 469.657 88.3619L432.68 86.6525C431.882 86.6156 431.102 86.899 430.513 87.4395L424.237 93.2014C423.97 93.4467 423.66 93.6415 423.324 93.7764L420.666 94.841L392.474 102.998C392.27 103.058 392.072 103.138 391.884 103.24L385.384 106.745C384.48 107.232 383.889 108.148 383.816 109.172L383.3 116.408L382.271 123.62C382.123 124.656 381.446 125.54 380.484 125.953L378.311 126.886C377.844 127.086 377.334 127.165 376.829 127.114L371.266 126.557L367.995 126.147C366.891 126.009 365.801 126.493 365.163 127.406L362.202 131.642C361.916 132.052 361.533 132.383 361.086 132.606L337.879 144.228C336.976 144.68 336.362 145.555 336.243 146.558L332 182.376L330.802 190.775C330.756 191.094 330.66 191.404 330.516 191.692L330.122 192.481C329.708 193.309 328.935 193.9 328.027 194.082L323.716 194.946C323.331 195.023 322.965 195.175 322.639 195.393L322.139 195.726C321.554 196.117 321.124 196.701 320.926 197.377L320.832 197.697C320.619 198.425 320.688 199.206 321.027 199.884L323 203.829L323.938 205.706C324.298 206.424 324.354 207.257 324.094 208.017L323.24 210.515C323.169 210.724 323.075 210.924 322.959 211.112L320.395 215.295C320.115 215.753 319.962 216.278 319.953 216.816L319.337 256.319C319.334 256.5 319.315 256.68 319.28 256.857L317.273 266.954C317.139 267.627 316.382 267.968 315.789 267.622L311.61 265.185C311.211 264.952 310.756 264.83 310.293 264.831C308.712 264.834 307.499 266.235 307.722 267.801L307.933 269.277L308.409 275.197C308.468 275.926 308.258 276.652 307.819 277.237L306.123 279.498C305.72 280.036 305.146 280.423 304.496 280.597L298.38 282.228C298.128 282.295 297.868 282.329 297.607 282.329H289.432C289.145 282.329 288.86 282.288 288.586 282.207L280.913 279.951C280.639 279.87 280.378 279.751 280.138 279.596L273.934 275.608C273.647 275.423 273.33 275.289 272.998 275.211L265 273.329L243.5 270.329L226 266.329L211.79 263.745C210.442 263.5 209.432 262.374 209.334 261.007L208.565 250.237C208.523 249.645 208.32 249.064 207.875 248.672C205.869 246.907 201.051 245.125 192.5 247.829C184.838 250.252 190.15 259.096 194.879 263.74C195.269 264.123 195.5 264.641 195.5 265.188C195.5 266.744 193.765 267.673 192.47 266.809L191 265.829L181.5 259.829L173.915 255.563C173.64 255.408 173.342 255.297 173.033 255.236L172.009 255.031C171.355 254.9 170.676 254.991 170.079 255.289L169.435 255.611C169.147 255.755 168.884 255.945 168.656 256.173L166.409 258.42C166.139 258.69 165.82 258.906 165.469 259.057L163.548 259.88C162.873 260.169 162.115 260.201 161.418 259.968L158.35 258.946C158.118 258.868 157.895 258.762 157.688 258.631L153.237 255.798C152.756 255.492 152.197 255.329 151.626 255.329H146.869C146.624 255.329 146.38 255.359 146.142 255.419L137.007 257.702C136.671 257.786 136.324 257.811 135.98 257.777L132.756 257.455C131.953 257.374 131.216 256.974 130.712 256.344L128.456 253.524C127.856 252.773 126.931 252.356 125.971 252.402L117.276 252.816C117.092 252.825 116.91 252.85 116.731 252.892L108.5 254.829L103.521 255.659C102.859 255.769 102.18 255.654 101.591 255.333L97.284 252.984C97.095 252.881 96.918 252.758 96.756 252.617L90.138 246.882C89.721 246.52 89.212 246.281 88.667 246.19L87.115 245.932C86.71 245.864 86.294 245.881 85.895 245.98L82.5 246.829L60.5 254.829L49 257.329" stroke="#104946" stroke-width="2"/>
<path d="M270.5 274.329L275.719 257.025C276.355 254.918 275.168 252.693 273.063 252.046L271.334 251.515C269.655 251 268.508 249.448 268.508 247.692V243.077C268.508 242.567 268.411 242.062 268.221 241.589L266.14 236.397C265.317 234.344 266.316 232.013 268.37 231.194L271.08 230.112L280.612 227.734C281.057 227.623 281.37 227.223 281.37 226.764V220.932C281.37 220.635 281.337 220.339 281.271 220.05L276.967 201.027C276.901 200.737 276.868 200.441 276.868 200.144V192.248M276.868 192.248L269.679 199.422C268.929 200.171 267.913 200.591 266.854 200.591H255.647H245.456C244.966 200.591 244.48 200.501 244.022 200.326L237.691 197.896C236.827 197.564 235.874 197.542 234.995 197.834L228.28 200.068C227.273 200.403 226.441 201.124 225.966 202.072L220.277 213.426M276.868 192.248L279.82 188.04C280.757 186.705 280.789 184.935 279.902 183.567L278.3 181.097C276.575 178.436 278.485 174.921 281.657 174.921H319.66C320.277 174.921 320.885 175.064 321.437 175.338L331.5 180.329" stroke="#84A29D"/>
<path d="M231.5 74.3286L243.869 91.8447C244.004 92.0366 244.172 92.2031 244.365 92.3366L252.291 97.812C252.386 97.8776 252.486 97.9348 252.591 97.9831L260.395 101.578C260.658 101.699 260.943 101.761 261.232 101.761H269.153H274.493C275.173 101.761 275.807 102.107 276.175 102.678L281.053 110.251C281.261 110.574 281.372 110.95 281.372 111.334V121.194C281.372 121.881 281.019 122.52 280.438 122.886L269.153 129.998L260.793 135.774M260.793 135.774L245.4 126.912C244.617 126.461 243.629 126.591 242.99 127.229L240.413 129.8C240.282 129.932 240.169 130.081 240.079 130.243L236.999 135.774L230.658 150.329C230.599 150.466 230.524 150.595 230.436 150.715L223.781 159.771C223.593 160.027 223.347 160.235 223.062 160.377L214.313 164.742C213.634 165.081 213.206 165.774 213.206 166.532V172.536C213.206 173.222 212.854 173.86 212.274 174.226L194.24 185.624C194.024 185.761 193.836 185.937 193.687 186.144L182.338 201.875M260.793 135.774L268.508 142.881C268.919 143.26 269.153 143.793 269.153 144.352V149.572C269.153 150.18 269.43 150.755 269.906 151.135L275.037 155.231C275.391 155.514 275.831 155.668 276.285 155.668H280.504C281.058 155.668 281.586 155.898 281.965 156.302L289.397 164.249C289.982 164.874 290.104 165.803 289.7 166.558L285.23 174.921" stroke="#84A29D"/>
<path d="M383.5 53.3286C382.667 55.9953 375.6 61.9286 354 64.3286C333.183 66.6416 317.815 68.8307 312.104 69.7323C311.708 69.7949 311.344 69.9758 311.053 70.2511L303.542 77.3444C302.919 77.9328 302.74 78.8527 303.097 79.6317L307.312 88.8276C307.711 89.699 307.436 90.7312 306.656 91.2883L297.5 97.8286L288 104.829L281.5 110.829" stroke="#84A29D"/>
<path d="M10.5 112.5L23.032 109.111C23.641 108.934 24.296 109.056 24.807 109.433C33.563 115.889 52.709 127.042 65.5 124.329C75.53 122.201 82.923 118.015 87.065 114.884C88.957 113.454 91.442 112.834 93.68 113.617L99.691 115.721C99.896 115.792 100.087 115.897 100.258 116.03L119.792 131.223C121.547 132.588 123.707 133.329 125.931 133.329H132.897C134.777 133.329 135.618 130.971 134.164 129.781L130.1 126.456C128.927 125.496 129.206 123.631 130.609 123.057L138.26 119.927C138.419 119.862 138.586 119.818 138.757 119.795L169 115.829H180.885C182.554 115.829 183.489 113.906 182.458 112.593L180.742 110.409C180.057 109.538 180.212 108.276 181.087 107.595L199.298 93.4305C201.003 92.1043 202 90.0651 202 87.905V81.777C202 80.5023 202.348 79.2518 203.007 78.1604L219.5 50.8286" stroke="#84A29D"/>
<path d="M134 121.329L136.932 110.577C136.977 110.412 137.04 110.26 137.125 110.112C141.669 102.183 150.811 85.2737 152 79.3286C153.006 74.2994 150.335 69.3874 148.168 66.6535C147.541 65.862 147.467 64.7305 148.088 63.9343L162.34 45.6741C162.752 45.146 162.873 44.4466 162.661 43.8111L159.5 34.3291C159.207 33.4496 159.557 32.484 160.345 31.9961L169.121 26.5632C169.371 26.4087 169.583 26.2011 169.744 25.9552L177 14.8286" stroke="#84A29D"/>
<path d="M6.5 180L64.788 192.643C65.539 192.804 66.228 193.179 66.773 193.722L70.533 197.475C71.65 198.59 73.319 198.943 74.792 198.378L87.256 193.594C88.412 193.15 89.71 193.267 90.768 193.911L115.456 208.934M115.456 208.934C107.953 222.624 100.5 250.829 99.5 253.329M115.456 208.934L146.967 203.158L159.779 199.505C160.237 199.374 160.715 199.327 161.19 199.364L208.001 203.052C208.873 203.121 209.699 203.474 210.351 204.056L221.345 213.873C221.491 214.003 221.627 214.143 221.752 214.293L227.995 221.769L231.191 224.959C232.364 226.13 232.694 227.903 232.019 229.417L228.509 237.299C228.174 238.051 227.616 238.681 226.91 239.104L222.219 241.912C221.786 242.172 221.411 242.505 221.096 242.9C219.312 245.132 212.851 252.901 209 253.329" stroke="#84A29D"/>
<path d="M231.501 74.8286L222.712 53.8286L201.519 16.7403C201.015 15.8597 200.101 15.2929 199.089 15.2338L134.029 11.4347C132.912 11.3695 131.852 11.931 131.279 12.8914L112.183 44.8649C111.36 46.2429 109.599 46.7291 108.185 45.9681L105.141 44.3286C104.539 44.005 103.846 43.896 103.175 44.0197L86.2657 47.1344C85.5837 47.26 84.9667 47.6178 84.5197 48.1469L81.0987 52.1897C80.2687 53.1698 78.9077 53.5135 77.7127 53.0448L55.6127 44.3779C54.7307 44.0322 53.7377 44.1229 52.9337 44.6226L18.2187 66.1932C18.0737 66.2833 17.9367 66.3856 17.8087 66.4991L9.53669 73.8521C9.18469 74.1654 8.76269 74.3911 8.30669 74.5111L3.60369 75.7489C1.60169 76.2758 0.721695 78.6248 1.88669 80.337L7.87569 89.1454C7.95869 89.2674 8.03269 89.3953 8.09669 89.5281L14.1957 102.162C14.6897 103.184 14.5637 104.397 13.8727 105.296L10.6227 109.52C10.2197 110.045 10.0007 110.688 10.0007 111.349V114.179C10.0007 114.607 10.0927 115.031 10.2697 115.421L14.4397 124.594C14.7957 125.379 14.7977 126.28 14.4437 127.066L10.5007 135.829L10.2357 136.492C9.78969 137.607 10.0507 138.879 10.8997 139.728L11.3417 140.17C11.7707 140.599 12.0597 141.148 12.1707 141.745L14.3597 153.568C14.4527 154.067 14.4167 154.582 14.2557 155.063L3.54169 187.205C3.20669 188.212 3.42769 189.32 4.12269 190.121L51.4767 244.65C52.1187 245.389 52.3597 246.395 52.1217 247.344L50 257" stroke="#104946" stroke-width="2"/>
<path d="M60.0985 216.084C60.4185 216.454 60.6485 216.804 60.7885 217.134C60.9285 217.454 60.9985 217.779 60.9985 218.109C60.9985 218.769 60.7685 219.304 60.3085 219.714C59.8485 220.124 59.2035 220.329 58.3735 220.329H54.0985L53.9785 219.039H58.3735C58.8135 219.039 59.1535 218.954 59.3935 218.784C59.6335 218.614 59.7535 218.384 59.7535 218.094C59.7535 217.914 59.7035 217.734 59.6035 217.554C59.5135 217.364 59.3585 217.139 59.1385 216.879L56.3335 213.654L57.2185 212.769L60.0985 216.084ZM66.2575 219.039C66.3075 219.039 66.3425 219.084 66.3625 219.174C66.3925 219.254 66.4075 219.429 66.4075 219.699C66.4075 219.959 66.3925 220.129 66.3625 220.209C66.3425 220.289 66.3075 220.329 66.2575 220.329H65.8675C65.1075 220.329 64.5275 220.104 64.1275 219.654C63.7375 219.194 63.5425 218.544 63.5425 217.704V210.624H64.7875V217.644C64.7875 218.574 65.1675 219.039 65.9275 219.039H66.2575ZM70.2855 217.944C70.2855 218.684 70.0605 219.269 69.6105 219.699C69.1605 220.119 68.5655 220.329 67.8255 220.329H66.2655C66.1655 220.329 66.1155 220.119 66.1155 219.699C66.1155 219.259 66.1655 219.039 66.2655 219.039H67.8255C68.1855 219.039 68.4755 218.944 68.6955 218.754C68.9255 218.554 69.0405 218.279 69.0405 217.929V215.499H70.2855V217.944ZM66.6705 223.464V222.219H68.2605V223.464H66.6705ZM72.2145 209.859C72.0045 209.859 71.8395 209.899 71.7195 209.979C71.5995 210.049 71.5095 210.164 71.4495 210.324L71.0595 211.254L70.2195 210.879L70.6695 209.724C70.8195 209.354 71.0095 209.099 71.2395 208.959C71.4695 208.819 71.7945 208.749 72.2145 208.749H75.8895V209.859H72.2145ZM74.0745 211.989V220.329H72.8295V211.989H74.0745ZM78.7005 219.894C78.7005 220.724 78.5355 221.449 78.2055 222.069C77.8755 222.689 77.4105 223.164 76.8105 223.494C76.2205 223.824 75.5405 223.989 74.7705 223.989H73.7205L73.6005 222.699H74.7405C75.5905 222.699 76.2555 222.449 76.7355 221.949C77.2155 221.459 77.4555 220.774 77.4555 219.894V215.499H78.7005V219.894ZM83.7985 219.894C83.7985 220.724 83.6335 221.449 83.3035 222.069C82.9735 222.689 82.5085 223.164 81.9085 223.494C81.3185 223.824 80.6385 223.989 79.8685 223.989H79.4485L79.3285 222.699H79.8385C80.6885 222.699 81.3535 222.449 81.8335 221.949C82.3135 221.459 82.5535 220.774 82.5535 219.894V215.499H83.7985V219.894ZM82.2685 213.699V212.454H83.8585V213.699H82.2685Z" fill="#104946"/>
<path d="M131.791 175.699C132.641 175.699 133.306 175.449 133.786 174.949C134.266 174.459 134.506 173.774 134.506 172.894V168.499H135.751V170.884C135.751 171.254 135.856 171.539 136.066 171.739C136.286 171.939 136.601 172.039 137.011 172.039H137.206C137.306 172.039 137.356 172.259 137.356 172.699C137.356 173.119 137.306 173.329 137.206 173.329H137.011C136.741 173.329 136.491 173.284 136.261 173.194C136.031 173.094 135.861 172.969 135.751 172.819V172.999C135.741 173.799 135.571 174.499 135.241 175.099C134.911 175.709 134.451 176.174 133.861 176.494C133.271 176.824 132.591 176.989 131.821 176.989H131.401L131.281 175.699H131.791ZM146.382 172.039C146.482 172.039 146.532 172.259 146.532 172.699C146.532 173.119 146.482 173.329 146.382 173.329C145.722 173.329 145.227 173.419 144.897 173.599C144.567 173.779 144.262 174.134 143.982 174.664L142.752 176.929H142.062C140.982 176.929 140.137 176.629 139.527 176.029C138.917 175.439 138.612 174.599 138.612 173.509V173.329H137.202C137.102 173.329 137.052 173.119 137.052 172.699C137.052 172.259 137.102 172.039 137.202 172.039H138.612V170.434C138.612 169.434 138.862 168.644 139.362 168.064C139.862 167.484 140.542 167.194 141.402 167.194C142.232 167.194 142.887 167.434 143.367 167.914C143.847 168.384 144.087 169.029 144.087 169.849C144.087 170.489 143.907 171.069 143.547 171.589C143.187 172.109 142.682 172.519 142.032 172.819C141.392 173.119 140.667 173.274 139.857 173.284V173.464C139.857 174.214 140.037 174.769 140.397 175.129C140.767 175.499 141.322 175.684 142.062 175.684L142.977 174.004C143.277 173.464 143.567 173.059 143.847 172.789C144.137 172.509 144.477 172.314 144.867 172.204C145.257 172.094 145.762 172.039 146.382 172.039ZM142.842 169.924C142.842 169.454 142.712 169.094 142.452 168.844C142.202 168.584 141.847 168.454 141.387 168.454C140.897 168.454 140.517 168.624 140.247 168.964C139.987 169.304 139.857 169.794 139.857 170.434V172.039C140.777 172.039 141.502 171.849 142.032 171.469C142.572 171.089 142.842 170.574 142.842 169.924ZM147.557 172.039C147.997 172.039 148.337 171.934 148.577 171.724C148.827 171.514 148.952 171.224 148.952 170.854V168.499H150.212V170.854C150.212 171.644 150.657 172.039 151.547 172.039C151.987 172.039 152.327 171.934 152.567 171.724C152.817 171.514 152.942 171.224 152.942 170.854V168.499H154.187V170.854C154.187 171.234 154.292 171.529 154.502 171.739C154.722 171.939 155.042 172.039 155.462 172.039C155.882 172.039 156.202 171.939 156.422 171.739C156.642 171.529 156.752 171.234 156.752 170.854V168.499H157.997V170.824C157.997 171.604 157.767 172.219 157.307 172.669C156.857 173.109 156.242 173.329 155.462 173.329C154.452 173.329 153.802 173.019 153.512 172.399C153.142 173.019 152.487 173.329 151.547 173.329C150.487 173.329 149.812 173.019 149.522 172.399C149.152 173.019 148.497 173.329 147.557 173.329H146.387C146.287 173.329 146.237 173.119 146.237 172.699C146.237 172.259 146.287 172.039 146.387 172.039H147.557ZM154.217 163.459V164.644H152.852V163.459H154.217ZM155.507 165.514V166.699H151.547V165.514H155.507ZM166.648 173.329C165.768 173.329 165.103 173.099 164.653 172.639C164.213 172.179 163.993 171.544 163.993 170.734V168.499H165.238V170.569C165.238 171.549 165.733 172.039 166.723 172.039H172.108C172.548 172.039 172.888 171.954 173.128 171.784C173.368 171.614 173.488 171.384 173.488 171.094C173.488 170.894 173.438 170.699 173.338 170.509C173.248 170.309 173.093 170.099 172.873 169.879L169.363 166.384V165.304L174.823 163.129L175.198 164.329L170.818 166.054L173.788 169.039C174.748 169.999 175.453 170.679 175.903 171.079C176.353 171.479 176.703 171.739 176.953 171.859C177.213 171.979 177.508 172.039 177.838 172.039C177.938 172.039 177.988 172.259 177.988 172.699C177.988 173.119 177.938 173.329 177.838 173.329C177.408 173.329 177.053 173.289 176.773 173.209C176.493 173.119 176.188 172.954 175.858 172.714C175.538 172.464 175.113 172.074 174.583 171.544C174.533 172.074 174.288 172.504 173.848 172.834C173.418 173.164 172.838 173.329 172.108 173.329H166.648ZM179.637 172.039C180.027 172.039 180.337 171.939 180.567 171.739C180.797 171.539 180.912 171.269 180.912 170.929V168.499H182.157V170.899C182.157 171.269 182.257 171.554 182.457 171.754C182.667 171.944 182.967 172.039 183.357 172.039H183.777C183.877 172.039 183.927 172.254 183.927 172.684C183.927 173.114 183.877 173.329 183.777 173.329H183.312C182.392 173.329 181.792 173.034 181.512 172.444C181.162 173.034 180.537 173.329 179.637 173.329H177.838C177.738 173.329 177.687 173.119 177.687 172.699C177.687 172.259 177.738 172.039 177.838 172.039H179.637ZM180.927 175.219V176.404H176.967V175.219H180.927ZM187.804 170.944C187.804 171.684 187.579 172.269 187.129 172.699C186.679 173.119 186.084 173.329 185.344 173.329H183.784C183.684 173.329 183.634 173.119 183.634 172.699C183.634 172.259 183.684 172.039 183.784 172.039H185.344C185.704 172.039 185.994 171.944 186.214 171.754C186.444 171.554 186.559 171.279 186.559 170.929V168.499H187.804V170.944ZM185.524 166.699V165.454H187.114V166.699H185.524Z" fill="#104946"/>
<path d="M69.1618 90.1136V88.8686H70.7518V90.1136H69.1618ZM66.0868 90.1286C66.0868 90.8586 66.3168 91.3936 66.7768 91.7336C67.2368 92.0736 67.9768 92.2436 68.9968 92.2436H72.1918L72.0718 93.5336H68.9068C66.1968 93.5336 64.8418 92.4436 64.8418 90.2636C64.8418 89.3636 65.0918 88.5736 65.5918 87.8936C66.0918 87.2136 66.9168 86.6086 68.0668 86.0786L70.8268 84.8186C70.6968 84.4486 70.5668 84.1686 70.4368 83.9786C70.3068 83.7886 70.1368 83.6536 69.9268 83.5736C69.7268 83.4936 69.4468 83.4536 69.0868 83.4536H65.5468L65.7118 82.1486H69.2968C69.8868 82.1486 70.3668 82.2436 70.7368 82.4336C71.1168 82.6236 71.4268 82.9486 71.6668 83.4086C71.9068 83.8686 72.1118 84.5186 72.2818 85.3586L68.5618 87.1286C67.6318 87.5686 66.9868 88.0136 66.6268 88.4636C66.2668 88.9236 66.0868 89.4786 66.0868 90.1286ZM81.8098 87.0386C81.8598 87.0386 81.8948 87.0836 81.9148 87.1736C81.9448 87.2536 81.9598 87.4286 81.9598 87.6986C81.9598 87.9586 81.9448 88.1286 81.9148 88.2086C81.8948 88.2886 81.8598 88.3286 81.8098 88.3286H80.3698C80.2798 89.4686 79.8898 90.3636 79.1998 91.0136C78.5098 91.6636 77.6098 91.9886 76.4998 91.9886H74.6548L74.5348 90.6986H76.5148C77.3148 90.6986 77.9498 90.4836 78.4198 90.0536C78.8998 89.6336 79.1448 89.0586 79.1548 88.3286H77.6548C76.6248 88.3286 75.8798 88.1186 75.4198 87.6986C74.9698 87.2686 74.7448 86.6036 74.7448 85.7036C74.7448 85.0836 74.8648 84.5336 75.1048 84.0536C75.3448 83.5636 75.6798 83.1886 76.1098 82.9286C76.5498 82.6586 77.0448 82.5236 77.5948 82.5236C78.4648 82.5236 79.1498 82.8136 79.6498 83.3936C80.1498 83.9736 80.3998 84.7686 80.3998 85.7786V87.0386H81.8098ZM75.9898 85.6286C75.9898 86.1386 76.1148 86.5036 76.3648 86.7236C76.6248 86.9336 77.0798 87.0386 77.7298 87.0386H79.1548V85.8686C79.1548 85.1786 79.0148 84.6586 78.7348 84.3086C78.4548 83.9586 78.0498 83.7836 77.5198 83.7836C77.0598 83.7836 76.6898 83.9536 76.4098 84.2936C76.1298 84.6336 75.9898 85.0786 75.9898 85.6286ZM83.6058 87.0386C83.9958 87.0386 84.3058 86.9386 84.5358 86.7386C84.7658 86.5386 84.8808 86.2686 84.8808 85.9286V83.4986H86.1258V85.8986C86.1258 86.2686 86.2258 86.5536 86.4258 86.7536C86.6358 86.9436 86.9358 87.0386 87.3258 87.0386H87.7458C87.8458 87.0386 87.8958 87.2536 87.8958 87.6836C87.8958 88.1136 87.8458 88.3286 87.7458 88.3286H87.2808C86.3608 88.3286 85.7608 88.0336 85.4808 87.4436C85.1308 88.0336 84.5058 88.3286 83.6058 88.3286H81.8058C81.7058 88.3286 81.6558 88.1186 81.6558 87.6986C81.6558 87.2586 81.7058 87.0386 81.8058 87.0386H83.6058ZM84.4308 81.6986V80.4536H86.0208V81.6986H84.4308ZM90.4078 87.0386C90.7478 87.0386 91.0028 87.0186 91.1728 86.9786C90.3628 86.6786 89.8028 86.3586 89.4928 86.0186C89.1828 85.6686 89.0278 85.2036 89.0278 84.6236C89.0278 84.0936 89.1528 83.6136 89.4028 83.1836C89.6528 82.7436 89.9928 82.3986 90.4228 82.1486C90.8628 81.8986 91.3578 81.7736 91.9078 81.7736C92.8278 81.7736 93.5378 82.0586 94.0378 82.6286C94.5478 83.1886 94.8028 83.9786 94.8028 84.9986V85.5086C94.8028 86.4386 94.4928 87.1436 93.8728 87.6236C93.2528 88.0936 92.3378 88.3286 91.1278 88.3286H87.7528C87.6528 88.3286 87.6028 88.1186 87.6028 87.6986C87.6028 87.2586 87.6528 87.0386 87.7528 87.0386H90.4078ZM93.0178 86.7536C93.3778 86.4536 93.5578 86.0136 93.5578 85.4336V85.0736C93.5578 84.3936 93.4128 83.8836 93.1228 83.5436C92.8428 83.2036 92.4278 83.0336 91.8778 83.0336C91.4378 83.0336 91.0578 83.1886 90.7378 83.4986C90.4278 83.7986 90.2728 84.1636 90.2728 84.5936C90.2728 84.9236 90.3528 85.2036 90.5128 85.4336C90.6728 85.6636 90.9478 85.8836 91.3378 86.0936C91.7278 86.2936 92.2878 86.5136 93.0178 86.7536ZM91.0378 80.1986V78.9536H92.6278V80.1986H91.0378Z" fill="#104946"/>
<path d="M165.499 73.8935C165.499 74.7235 165.334 75.4485 165.004 76.0685C164.674 76.6885 164.209 77.1635 163.609 77.4935C163.019 77.8235 162.339 77.9885 161.569 77.9885H161.149L161.029 76.6985H161.539C162.389 76.6985 163.054 76.4485 163.534 75.9485C164.014 75.4585 164.254 74.7735 164.254 73.8935V69.4985H165.499V73.8935ZM170.766 73.0385C170.816 73.0385 170.851 73.0835 170.871 73.1735C170.901 73.2535 170.916 73.4285 170.916 73.6985C170.916 73.9585 170.901 74.1285 170.871 74.2085C170.851 74.2885 170.816 74.3285 170.766 74.3285H170.376C169.616 74.3285 169.036 74.1035 168.636 73.6535C168.246 73.1935 168.051 72.5435 168.051 71.7035V64.6235H169.296V71.6435C169.296 72.5735 169.676 73.0385 170.436 73.0385H170.766ZM171.943 73.0385C172.383 73.0385 172.723 72.9335 172.963 72.7235C173.213 72.5135 173.338 72.2235 173.338 71.8535V69.4985H174.598V71.8535C174.598 72.6435 175.043 73.0385 175.933 73.0385C176.373 73.0385 176.713 72.9335 176.953 72.7235C177.203 72.5135 177.328 72.2235 177.328 71.8535V69.4985H178.573V71.8535C178.573 72.2335 178.678 72.5285 178.888 72.7385C179.108 72.9385 179.428 73.0385 179.848 73.0385C180.268 73.0385 180.588 72.9385 180.808 72.7385C181.028 72.5285 181.138 72.2335 181.138 71.8535V69.4985H182.383V71.8235C182.383 72.6035 182.153 73.2185 181.693 73.6685C181.243 74.1085 180.628 74.3285 179.848 74.3285C178.838 74.3285 178.188 74.0185 177.898 73.3985C177.528 74.0185 176.873 74.3285 175.933 74.3285C174.873 74.3285 174.198 74.0185 173.908 73.3985C173.538 74.0185 172.883 74.3285 171.943 74.3285H170.773C170.673 74.3285 170.623 74.1185 170.623 73.6985C170.623 73.2585 170.673 73.0385 170.773 73.0385H171.943ZM178.603 64.4585V65.6435H177.238V64.4585H178.603ZM179.893 66.5135V67.6985H175.933V66.5135H179.893ZM186.2 64.6235V73.0385H188.195C188.555 73.0385 188.845 72.9385 189.065 72.7385C189.295 72.5385 189.41 72.2685 189.41 71.9285V64.6235H190.655V71.9435C190.655 72.6835 190.43 73.2685 189.98 73.6985C189.53 74.1185 188.935 74.3285 188.195 74.3285H184.955V64.6235H186.2Z" fill="#104946"/>
<path d="M224.542 177.039C224.892 177.039 225.172 176.964 225.382 176.814C225.602 176.664 225.712 176.469 225.712 176.229C225.712 176.029 225.632 175.699 225.472 175.239C225.312 174.779 224.892 173.619 224.212 171.759C224.182 171.679 224.152 171.604 224.122 171.534C224.092 171.454 224.067 171.384 224.047 171.324L225.202 170.799L226.957 175.779C227.117 176.239 227.297 176.564 227.497 176.754C227.697 176.944 227.972 177.039 228.322 177.039H228.637C228.737 177.039 228.787 177.259 228.787 177.699C228.787 177.969 228.772 178.144 228.742 178.224C228.722 178.294 228.687 178.329 228.637 178.329H228.277C227.817 178.329 227.437 178.254 227.137 178.104C226.837 177.954 226.602 177.714 226.432 177.384C226.242 177.714 225.992 177.954 225.682 178.104C225.382 178.254 225.002 178.329 224.542 178.329H221.032L220.912 177.039H224.542ZM230.443 177.039C230.833 177.039 231.143 176.939 231.373 176.739C231.603 176.539 231.718 176.269 231.718 175.929V173.499H232.963V175.899C232.963 176.269 233.063 176.554 233.263 176.754C233.473 176.944 233.773 177.039 234.163 177.039H234.583C234.683 177.039 234.733 177.254 234.733 177.684C234.733 178.114 234.683 178.329 234.583 178.329H234.118C233.198 178.329 232.598 178.034 232.318 177.444C231.968 178.034 231.343 178.329 230.443 178.329H228.643C228.543 178.329 228.493 178.119 228.493 177.699C228.493 177.259 228.543 177.039 228.643 177.039H230.443ZM231.268 171.699V170.454H232.858V171.699H231.268ZM237.245 177.039C237.585 177.039 237.84 177.019 238.01 176.979C237.2 176.679 236.64 176.359 236.33 176.019C236.02 175.669 235.865 175.204 235.865 174.624C235.865 174.094 235.99 173.614 236.24 173.184C236.49 172.744 236.83 172.399 237.26 172.149C237.7 171.899 238.195 171.774 238.745 171.774C239.665 171.774 240.375 172.059 240.875 172.629C241.385 173.189 241.64 173.979 241.64 174.999V175.509C241.64 176.439 241.33 177.144 240.71 177.624C240.09 178.094 239.175 178.329 237.965 178.329H234.59C234.49 178.329 234.44 178.119 234.44 177.699C234.44 177.259 234.49 177.039 234.59 177.039H237.245ZM239.855 176.754C240.215 176.454 240.395 176.014 240.395 175.434V175.074C240.395 174.394 240.25 173.884 239.96 173.544C239.68 173.204 239.265 173.034 238.715 173.034C238.275 173.034 237.895 173.189 237.575 173.499C237.265 173.799 237.11 174.164 237.11 174.594C237.11 174.924 237.19 175.204 237.35 175.434C237.51 175.664 237.785 175.884 238.175 176.094C238.565 176.294 239.125 176.514 239.855 176.754ZM240.65 169.014V170.199H236.69V169.014H240.65ZM246.19 175.884C246.19 176.254 246.295 176.539 246.505 176.739C246.725 176.939 247.04 177.039 247.45 177.039H247.645C247.745 177.039 247.795 177.259 247.795 177.699C247.795 178.119 247.745 178.329 247.645 178.329H247.45C247.18 178.329 246.93 178.284 246.7 178.194C246.47 178.094 246.3 177.969 246.19 177.819V177.999C246.18 178.799 246.01 179.499 245.68 180.099C245.35 180.709 244.89 181.174 244.3 181.494C243.71 181.824 243.03 181.989 242.26 181.989H241.21L241.09 180.699H242.23C243.08 180.699 243.745 180.449 244.225 179.949C244.705 179.459 244.945 178.774 244.945 177.894V173.499H246.19V175.884ZM248.242 177.039C248.682 177.039 249.022 176.934 249.262 176.724C249.512 176.514 249.637 176.224 249.637 175.854V173.499H250.882V175.809C250.882 176.109 250.932 176.344 251.032 176.514C251.142 176.674 251.307 176.794 251.527 176.874C252.467 175.204 253.332 174.004 254.122 173.274C254.912 172.534 255.727 172.164 256.567 172.164C257.107 172.164 257.592 172.299 258.022 172.569C258.452 172.829 258.787 173.194 259.027 173.664C259.277 174.124 259.402 174.654 259.402 175.254C259.402 175.804 259.282 176.289 259.042 176.709C259.182 176.829 259.357 176.914 259.567 176.964C259.787 177.014 260.067 177.039 260.407 177.039H260.752C260.852 177.039 260.902 177.259 260.902 177.699C260.902 178.119 260.852 178.329 260.752 178.329H260.407C259.887 178.329 259.472 178.284 259.162 178.194C258.862 178.094 258.592 177.914 258.352 177.654C257.812 178.104 257.112 178.329 256.252 178.329H252.247C251.207 178.329 250.527 178.034 250.207 177.444C249.857 178.034 249.202 178.329 248.242 178.329H247.642C247.542 178.329 247.492 178.119 247.492 177.699C247.492 177.259 247.542 177.039 247.642 177.039H248.242ZM256.252 177.039C256.852 177.039 257.317 176.879 257.647 176.559C257.987 176.239 258.157 175.804 258.157 175.254C258.157 174.714 257.997 174.274 257.677 173.934C257.357 173.584 256.957 173.409 256.477 173.409C255.917 173.409 255.342 173.704 254.752 174.294C254.162 174.874 253.497 175.789 252.757 177.039H256.252ZM263.407 177.039C263.747 177.039 264.002 177.019 264.172 176.979C263.362 176.679 262.802 176.359 262.492 176.019C262.182 175.669 262.027 175.204 262.027 174.624C262.027 174.094 262.152 173.614 262.402 173.184C262.652 172.744 262.992 172.399 263.422 172.149C263.862 171.899 264.357 171.774 264.907 171.774C265.827 171.774 266.537 172.059 267.037 172.629C267.547 173.189 267.802 173.979 267.802 174.999V175.509C267.802 176.439 267.492 177.144 266.872 177.624C266.252 178.094 265.337 178.329 264.127 178.329H260.752C260.652 178.329 260.602 178.119 260.602 177.699C260.602 177.259 260.652 177.039 260.752 177.039H263.407ZM266.017 176.754C266.377 176.454 266.557 176.014 266.557 175.434V175.074C266.557 174.394 266.412 173.884 266.122 173.544C265.842 173.204 265.427 173.034 264.877 173.034C264.437 173.034 264.057 173.189 263.737 173.499C263.427 173.799 263.272 174.164 263.272 174.594C263.272 174.924 263.352 175.204 263.512 175.434C263.672 175.664 263.947 175.884 264.337 176.094C264.727 176.294 265.287 176.514 266.017 176.754ZM266.812 169.014V170.199H262.852V169.014H266.812Z" fill="#104946"/>
<path d="M283.874 55.8935C283.874 56.7235 283.709 57.4485 283.379 58.0685C283.049 58.6885 282.584 59.1635 281.984 59.4935C281.394 59.8235 280.714 59.9885 279.944 59.9885H279.524L279.404 58.6985H279.914C280.764 58.6985 281.429 58.4485 281.909 57.9485C282.389 57.4585 282.629 56.7735 282.629 55.8935V51.4985H283.874V55.8935ZM282.344 49.6985V48.4535H283.934V49.6985H282.344ZM289.141 55.0385C289.191 55.0385 289.226 55.0835 289.246 55.1735C289.276 55.2535 289.291 55.4285 289.291 55.6985C289.291 55.9585 289.276 56.1285 289.246 56.2085C289.226 56.2885 289.191 56.3285 289.141 56.3285H288.751C287.991 56.3285 287.411 56.1035 287.011 55.6535C286.621 55.1935 286.426 54.5435 286.426 53.7035V46.6235H287.671V53.6435C287.671 54.5735 288.051 55.0385 288.811 55.0385H289.141ZM293.168 53.9435C293.168 54.6835 292.943 55.2685 292.493 55.6985C292.043 56.1185 291.448 56.3285 290.708 56.3285H289.148C289.048 56.3285 288.998 56.1185 288.998 55.6985C288.998 55.2585 289.048 55.0385 289.148 55.0385H290.708C291.068 55.0385 291.358 54.9435 291.578 54.7535C291.808 54.5535 291.923 54.2785 291.923 53.9285V51.4985H293.168V53.9435ZM289.553 59.4635V58.2185H291.143V59.4635H289.553ZM293.756 58.6985C294.606 58.6985 295.271 58.4485 295.751 57.9485C296.231 57.4585 296.471 56.7735 296.471 55.8935V51.4985H297.716V53.8835C297.716 54.2535 297.821 54.5385 298.031 54.7385C298.251 54.9385 298.566 55.0385 298.976 55.0385H299.171C299.271 55.0385 299.321 55.2585 299.321 55.6985C299.321 56.1185 299.271 56.3285 299.171 56.3285H298.976C298.706 56.3285 298.456 56.2835 298.226 56.1935C297.996 56.0935 297.826 55.9685 297.716 55.8185V55.9985C297.706 56.7985 297.536 57.4985 297.206 58.0985C296.876 58.7085 296.416 59.1735 295.826 59.4935C295.236 59.8235 294.556 59.9885 293.786 59.9885H293.366L293.246 58.6985H293.756ZM300.338 55.0385C300.778 55.0385 301.118 54.9335 301.358 54.7235C301.608 54.5135 301.733 54.2235 301.733 53.8535V51.4985H302.993V53.8535C302.993 54.6435 303.438 55.0385 304.328 55.0385C304.768 55.0385 305.108 54.9335 305.348 54.7235C305.598 54.5135 305.723 54.2235 305.723 53.8535V51.4985H306.968V53.8535C306.968 54.2335 307.073 54.5285 307.283 54.7385C307.503 54.9385 307.823 55.0385 308.243 55.0385C308.663 55.0385 308.983 54.9385 309.203 54.7385C309.423 54.5285 309.533 54.2335 309.533 53.8535V51.4985H310.778V53.8235C310.778 54.6035 310.548 55.2185 310.088 55.6685C309.638 56.1085 309.023 56.3285 308.243 56.3285C307.233 56.3285 306.583 56.0185 306.293 55.3985C305.923 56.0185 305.268 56.3285 304.328 56.3285C303.268 56.3285 302.593 56.0185 302.303 55.3985C301.933 56.0185 301.278 56.3285 300.338 56.3285H299.168C299.068 56.3285 299.018 56.1185 299.018 55.6985C299.018 55.2585 299.068 55.0385 299.168 55.0385H300.338Z" fill="#104946"/>
<path d="M327.468 99.3285C326.588 99.3285 325.923 99.0985 325.473 98.6385C325.033 98.1785 324.812 97.5435 324.812 96.7335V94.4985H326.057V96.5685C326.057 97.5485 326.553 98.0385 327.543 98.0385H332.927C333.367 98.0385 333.708 97.9535 333.948 97.7835C334.188 97.6135 334.307 97.3835 334.307 97.0935C334.307 96.8935 334.258 96.6985 334.158 96.5085C334.068 96.3085 333.913 96.0985 333.693 95.8785L330.182 92.3835V91.3035L335.643 89.1285L336.018 90.3285L331.638 92.0535L334.607 95.0385C335.567 95.9985 336.273 96.6785 336.723 97.0785C337.173 97.4785 337.523 97.7385 337.773 97.8585C338.033 97.9785 338.328 98.0385 338.658 98.0385C338.758 98.0385 338.807 98.2585 338.807 98.6985C338.807 99.1185 338.758 99.3285 338.658 99.3285C338.228 99.3285 337.873 99.2885 337.593 99.2085C337.313 99.1185 337.007 98.9535 336.677 98.7135C336.357 98.4635 335.933 98.0735 335.403 97.5435C335.353 98.0735 335.108 98.5035 334.668 98.8335C334.238 99.1635 333.657 99.3285 332.927 99.3285H327.468ZM339.827 98.0385C340.267 98.0385 340.606 97.9335 340.846 97.7235C341.096 97.5135 341.221 97.2235 341.221 96.8535V94.4985H342.482V96.8535C342.482 97.6435 342.927 98.0385 343.817 98.0385C344.257 98.0385 344.596 97.9335 344.836 97.7235C345.086 97.5135 345.211 97.2235 345.211 96.8535V94.4985H346.456V96.8535C346.456 97.2335 346.561 97.5285 346.771 97.7385C346.991 97.9385 347.312 98.0385 347.732 98.0385C348.152 98.0385 348.472 97.9385 348.692 97.7385C348.912 97.5285 349.021 97.2335 349.021 96.8535V94.4985H350.267V96.8235C350.267 97.6035 350.037 98.2185 349.577 98.6685C349.127 99.1085 348.512 99.3285 347.732 99.3285C346.722 99.3285 346.071 99.0185 345.781 98.3985C345.411 99.0185 344.757 99.3285 343.817 99.3285C342.757 99.3285 342.082 99.0185 341.792 98.3985C341.422 99.0185 340.767 99.3285 339.827 99.3285H338.656C338.556 99.3285 338.507 99.1185 338.507 98.6985C338.507 98.2585 338.556 98.0385 338.656 98.0385H339.827ZM352.839 89.6235H354.083V99.3285H352.839V89.6235ZM358.797 98.8935C358.797 99.7235 358.632 100.449 358.302 101.069C357.972 101.689 357.508 102.164 356.908 102.494C356.318 102.824 355.637 102.989 354.867 102.989H353.818L353.698 101.699H354.838C355.688 101.699 356.353 101.449 356.833 100.949C357.313 100.459 357.552 99.7735 357.552 98.8935V94.4985H358.797V98.8935Z" fill="#104946"/>
<path d="M153.148 227.039C153.588 227.039 153.928 226.954 154.168 226.784C154.408 226.614 154.528 226.384 154.528 226.094C154.528 225.894 154.478 225.699 154.378 225.509C154.288 225.309 154.133 225.099 153.913 224.879L150.403 221.384V220.304L155.863 218.129L156.238 219.329L151.858 221.054L154.873 224.069C155.473 224.679 155.773 225.359 155.773 226.109C155.773 226.769 155.543 227.304 155.083 227.714C154.623 228.124 153.978 228.329 153.148 228.329H147.688C146.808 228.329 146.143 228.099 145.693 227.639C145.253 227.179 145.033 226.544 145.033 225.734V223.499H146.278V225.569C146.278 226.549 146.773 227.039 147.763 227.039H153.148ZM160.56 227.894C160.56 228.724 160.395 229.449 160.065 230.069C159.735 230.689 159.27 231.164 158.67 231.494C158.08 231.824 157.4 231.989 156.63 231.989H155.58L155.46 230.699H156.6C157.45 230.699 158.115 230.449 158.595 229.949C159.075 229.459 159.315 228.774 159.315 227.894V223.499H160.56V227.894ZM165.828 227.039C165.878 227.039 165.913 227.084 165.933 227.174C165.963 227.254 165.978 227.429 165.978 227.699C165.978 227.959 165.963 228.129 165.933 228.209C165.913 228.289 165.878 228.329 165.828 228.329H165.438C164.678 228.329 164.098 228.104 163.698 227.654C163.308 227.194 163.113 226.544 163.113 225.704V218.624H164.358V225.644C164.358 226.574 164.738 227.039 165.498 227.039H165.828ZM167.635 227.039C168.025 227.039 168.335 226.939 168.565 226.739C168.795 226.539 168.91 226.269 168.91 225.929V223.499H170.155V225.899C170.155 226.269 170.255 226.554 170.455 226.754C170.665 226.944 170.965 227.039 171.355 227.039H171.775C171.875 227.039 171.925 227.254 171.925 227.684C171.925 228.114 171.875 228.329 171.775 228.329H171.31C170.39 228.329 169.79 228.034 169.51 227.444C169.16 228.034 168.535 228.329 167.635 228.329H165.835C165.735 228.329 165.685 228.119 165.685 227.699C165.685 227.259 165.735 227.039 165.835 227.039H167.635ZM168.46 221.699V220.454H170.05V221.699H168.46ZM175.937 227.039C176.367 227.039 176.702 226.954 176.942 226.784C177.192 226.614 177.317 226.384 177.317 226.094C177.317 225.894 177.267 225.699 177.167 225.509C177.077 225.309 176.922 225.099 176.702 224.879L173.177 221.384V220.304L178.652 218.129L179.027 219.329L174.647 221.054L177.647 224.069C178.257 224.679 178.562 225.359 178.562 226.109C178.562 226.769 178.332 227.304 177.872 227.714C177.412 228.124 176.767 228.329 175.937 228.329H171.782C171.682 228.329 171.632 228.119 171.632 227.699C171.632 227.259 171.682 227.039 171.782 227.039H175.937Z" fill="#104946"/>
<path d="M230.302 254.894C230.302 255.724 230.137 256.449 229.807 257.069C229.477 257.689 229.012 258.164 228.412 258.494C227.822 258.824 227.142 258.989 226.372 258.989H225.952L225.832 257.699H226.342C227.192 257.699 227.857 257.449 228.337 256.949C228.817 256.459 229.057 255.774 229.057 254.894V250.499H230.302V254.894ZM235.57 254.039C235.62 254.039 235.655 254.084 235.675 254.174C235.705 254.254 235.72 254.429 235.72 254.699C235.72 254.959 235.705 255.129 235.675 255.209C235.655 255.289 235.62 255.329 235.57 255.329H235.18C234.42 255.329 233.84 255.104 233.44 254.654C233.05 254.194 232.855 253.544 232.855 252.704V245.624H234.1V252.644C234.1 253.574 234.48 254.039 235.24 254.039H235.57ZM244.757 254.039C244.857 254.039 244.907 254.259 244.907 254.699C244.907 255.119 244.857 255.329 244.757 255.329C244.097 255.329 243.602 255.419 243.272 255.599C242.942 255.779 242.637 256.134 242.357 256.664L241.127 258.929H240.437C239.357 258.929 238.512 258.629 237.902 258.029C237.292 257.439 236.987 256.599 236.987 255.509V255.329H235.577C235.477 255.329 235.427 255.119 235.427 254.699C235.427 254.259 235.477 254.039 235.577 254.039H236.987V252.434C236.987 251.434 237.237 250.644 237.737 250.064C238.237 249.484 238.917 249.194 239.777 249.194C240.607 249.194 241.262 249.434 241.742 249.914C242.222 250.384 242.462 251.029 242.462 251.849C242.462 252.489 242.282 253.069 241.922 253.589C241.562 254.109 241.057 254.519 240.407 254.819C239.767 255.119 239.042 255.274 238.232 255.284V255.464C238.232 256.214 238.412 256.769 238.772 257.129C239.142 257.499 239.697 257.684 240.437 257.684L241.352 256.004C241.652 255.464 241.942 255.059 242.222 254.789C242.512 254.509 242.852 254.314 243.242 254.204C243.632 254.094 244.137 254.039 244.757 254.039ZM241.217 251.924C241.217 251.454 241.087 251.094 240.827 250.844C240.577 250.584 240.222 250.454 239.762 250.454C239.272 250.454 238.892 250.624 238.622 250.964C238.362 251.304 238.232 251.794 238.232 252.434V254.039C239.152 254.039 239.877 253.849 240.407 253.469C240.947 253.089 241.217 252.574 241.217 251.924ZM248.782 252.944C248.782 253.684 248.557 254.269 248.107 254.699C247.657 255.119 247.062 255.329 246.322 255.329H244.762C244.662 255.329 244.612 255.119 244.612 254.699C244.612 254.259 244.662 254.039 244.762 254.039H246.322C246.682 254.039 246.972 253.944 247.192 253.754C247.422 253.554 247.537 253.279 247.537 252.929V250.499H248.782V252.944ZM245.167 258.464V257.219H246.757V258.464H245.167ZM254.042 254.039C254.092 254.039 254.127 254.084 254.147 254.174C254.177 254.254 254.192 254.429 254.192 254.699C254.192 254.959 254.177 255.129 254.147 255.209C254.127 255.289 254.092 255.329 254.042 255.329H253.652C252.892 255.329 252.312 255.104 251.912 254.654C251.522 254.194 251.327 253.544 251.327 252.704V245.624H252.572V252.644C252.572 253.574 252.952 254.039 253.712 254.039H254.042ZM255.099 254.039C255.849 254.039 256.474 253.979 256.974 253.859C257.474 253.739 257.989 253.529 258.519 253.229L260.799 251.894C260.639 251.354 260.419 250.979 260.139 250.769C259.869 250.559 259.459 250.454 258.909 250.454H255.399L255.564 249.149H259.119C259.719 249.149 260.214 249.249 260.604 249.449C260.994 249.649 261.319 249.979 261.579 250.439C261.839 250.889 262.064 251.514 262.254 252.314L259.104 254.264C258.464 254.664 257.849 254.944 257.259 255.104C256.669 255.254 255.934 255.329 255.054 255.329H254.049C253.949 255.329 253.899 255.119 253.899 254.699C253.899 254.259 253.949 254.039 254.049 254.039H255.099ZM259.599 257.219V258.404H255.639V257.219H259.599ZM256.959 260.459V259.274H258.279V260.459H256.959Z" fill="#104946"/>
<path d="M282.657 236.553C282.657 235.923 282.287 235.608 281.547 235.608H278.697V232.878C278.697 232.048 278.947 231.378 279.447 230.868C279.947 230.348 280.622 230.088 281.472 230.088H283.377L283.482 231.333H281.442C281.002 231.333 280.642 231.478 280.362 231.768C280.092 232.048 279.957 232.403 279.957 232.833V234.318H281.757C282.477 234.318 283.012 234.508 283.362 234.888C283.722 235.258 283.902 235.788 283.902 236.478C283.902 237.108 283.717 237.693 283.347 238.233C282.987 238.773 282.492 239.198 281.862 239.508C281.242 239.828 280.552 239.988 279.792 239.988H278.637C277.377 239.988 276.407 239.623 275.727 238.893C275.047 238.163 274.707 237.143 274.707 235.833V232.998H275.952V235.803C275.952 236.753 276.182 237.473 276.642 237.963C277.102 238.453 277.777 238.698 278.667 238.698H279.792C280.352 238.698 280.847 238.603 281.277 238.413C281.717 238.233 282.057 237.978 282.297 237.648C282.537 237.328 282.657 236.963 282.657 236.553ZM289.004 235.893C289.004 236.723 288.839 237.448 288.509 238.068C288.179 238.688 287.714 239.163 287.114 239.493C286.524 239.823 285.844 239.988 285.074 239.988H284.654L284.534 238.698H285.044C285.894 238.698 286.559 238.448 287.039 237.948C287.519 237.458 287.759 236.773 287.759 235.893V231.498H289.004V235.893ZM294.271 235.038C294.321 235.038 294.356 235.083 294.376 235.173C294.406 235.253 294.421 235.428 294.421 235.698C294.421 235.958 294.406 236.128 294.376 236.208C294.356 236.288 294.321 236.328 294.271 236.328H293.881C293.121 236.328 292.541 236.103 292.141 235.653C291.751 235.193 291.556 234.543 291.556 233.703V226.623H292.801V233.643C292.801 234.573 293.181 235.038 293.941 235.038H294.271ZM296.078 235.038C296.468 235.038 296.778 234.938 297.008 234.738C297.238 234.538 297.353 234.268 297.353 233.928V231.498H298.598V233.898C298.598 234.268 298.698 234.553 298.898 234.753C299.108 234.943 299.408 235.038 299.798 235.038H300.218C300.318 235.038 300.368 235.253 300.368 235.683C300.368 236.113 300.318 236.328 300.218 236.328H299.753C298.833 236.328 298.233 236.033 297.953 235.443C297.603 236.033 296.978 236.328 296.078 236.328H294.278C294.178 236.328 294.128 236.118 294.128 235.698C294.128 235.258 294.178 235.038 294.278 235.038H296.078ZM297.368 238.218V239.403H293.408V238.218H297.368ZM302.026 235.038C302.416 235.038 302.726 234.938 302.956 234.738C303.186 234.538 303.301 234.268 303.301 233.928V231.498H304.546V233.898C304.546 234.268 304.646 234.553 304.846 234.753C305.056 234.943 305.356 235.038 305.746 235.038H306.166C306.266 235.038 306.316 235.253 306.316 235.683C306.316 236.113 306.266 236.328 306.166 236.328H305.701C304.781 236.328 304.181 236.033 303.901 235.443C303.551 236.033 302.926 236.328 302.026 236.328H300.226C300.126 236.328 300.076 236.118 300.076 235.698C300.076 235.258 300.126 235.038 300.226 235.038H302.026ZM304.861 228.513V229.698H300.901V228.513H304.861ZM307.343 235.038C307.783 235.038 308.123 234.933 308.363 234.723C308.613 234.513 308.738 234.223 308.738 233.853V231.498H309.998V233.853C309.998 234.643 310.443 235.038 311.333 235.038C311.773 235.038 312.113 234.933 312.353 234.723C312.603 234.513 312.728 234.223 312.728 233.853V231.498H313.973V233.853C313.973 234.233 314.078 234.528 314.288 234.738C314.508 234.938 314.828 235.038 315.248 235.038C315.668 235.038 315.988 234.938 316.208 234.738C316.428 234.528 316.538 234.233 316.538 233.853V231.498H317.783V233.823C317.783 234.603 317.553 235.218 317.093 235.668C316.643 236.108 316.028 236.328 315.248 236.328C314.238 236.328 313.588 236.018 313.298 235.398C312.928 236.018 312.273 236.328 311.333 236.328C310.273 236.328 309.598 236.018 309.308 235.398C308.938 236.018 308.283 236.328 307.343 236.328H306.173C306.073 236.328 306.023 236.118 306.023 235.698C306.023 235.258 306.073 235.038 306.173 235.038H307.343ZM314.003 226.458V227.643H312.638V226.458H314.003ZM315.293 228.513V229.698H311.333V228.513H315.293ZM325.905 232.083C326.225 232.453 326.455 232.803 326.595 233.133C326.735 233.453 326.805 233.778 326.805 234.108C326.805 234.768 326.575 235.303 326.115 235.713C325.655 236.123 325.01 236.328 324.18 236.328H319.905L319.785 235.038H324.18C324.62 235.038 324.96 234.953 325.2 234.783C325.44 234.613 325.56 234.383 325.56 234.093C325.56 233.913 325.51 233.733 325.41 233.553C325.32 233.363 325.165 233.138 324.945 232.878L322.14 229.653L323.025 228.768L325.905 232.083Z" fill="#104946"/>
</svg>
